<svg viewBox="0 0 419 155" xmlns="http://www.w3.org/2000/svg" xml:space="preserve" style="fill-rule:evenodd;clip-rule:evenodd;stroke-linejoin:round;stroke-miterlimit:2"><path style="fill:none" d="M-251.783 222.594h12.899v17.821h-12.899z" transform="matrix(32.4587 0 0 8.6871 8172.56 -1933.69)"/><path d="M1693.54 450.186a3 3 0 0 0-4.5-2.598l-55 31.751a3.017 3.017 0 0 0-1.5 2.598c0 1.072.58 2.062 1.5 2.598 8.6 4.966 27.17 15.684 34.43 19.877a5.999 5.999 0 0 0 6 0c4.22-2.434 11.85-6.841 16.07-9.275a6.014 6.014 0 0 0 3-5.196v-39.755Z" style="fill:url(#a)" transform="translate(-1498.932 -447.18)"/><path d="M1702.8 447.588a3 3 0 0 0-4.5 2.598v39.755a5.993 5.993 0 0 0 3 5.196c4.21 2.434 11.85 6.841 16.06 9.275a5.999 5.999 0 0 0 6 0c7.27-4.193 25.83-14.911 34.43-19.877a2.996 2.996 0 0 0 1.5-2.598c0-1.072-.57-2.062-1.5-2.598-11.75-6.783-43.24-24.968-54.99-31.751Z" style="fill:url(#b)" transform="translate(-1498.932 -447.18)"/><path d="M1627.16 491.256a3 3 0 0 1 4.5-2.598l35.13 20.278a6.013 6.013 0 0 1 3 5.196v84.867a3 3 0 0 1-4.5 2.598l-35.13-20.278a6.014 6.014 0 0 1-3-5.196v-84.867Z" style="fill:url(#c)" transform="translate(-1498.932 -447.18)"/><path d="M1764.67 491.256a3 3 0 0 0-4.5-2.598l-35.12 20.278a5.992 5.992 0 0 0-3 5.196v84.867a3 3 0 0 0 4.5 2.598l35.12-20.278a5.993 5.993 0 0 0 3-5.196v-84.867Z" style="fill:url(#d)" transform="translate(-1498.932 -447.18)"/><path d="M1503.92 485.656c-2.76 0-5 2.239-5 5v104.607a5.03 5.03 0 0 0 1.46 3.536 5.006 5.006 0 0 0 3.54 1.464h61.07c1.33 0 2.6-.526 3.54-1.464a5.03 5.03 0 0 0 1.46-3.536V580a5.03 5.03 0 0 0-1.46-3.536 5.01 5.01 0 0 0-3.54-1.464h-37.53s.05-65.513.06-84.34a4.992 4.992 0 0 0-5-5.004h-18.6ZM1589.07 485.656c-2.76 0-5 2.239-5 5v104.607a5 5 0 0 0 5 5h18.61a5 5 0 0 0 5-5V490.656c0-2.761-2.24-5-5-5h-18.61Z" style="fill:#2876bc" transform="translate(-1498.932 -447.18)"/><path d="M1852.38 485.656c-1.33 0-2.6.527-3.54 1.465a4.985 4.985 0 0 0-1.46 3.535v104.607a4.988 4.988 0 0 0 5 5h60.14c1.33 0 2.6-.526 3.54-1.464a5.03 5.03 0 0 0 1.46-3.536V580a5.03 5.03 0 0 0-1.46-3.536 5.01 5.01 0 0 0-3.54-1.464h-36.54v-22.102h31.6a5 5 0 0 0 3.53-1.464 4.997 4.997 0 0 0 1.47-3.536v-15.263c0-1.326-.53-2.598-1.47-3.536a5.004 5.004 0 0 0-3.53-1.464h-31.51l-.09-16.715h33.91c1.33 0 2.6-.527 3.54-1.465a5.026 5.026 0 0 0 1.46-3.535v-15.264c0-1.326-.53-2.597-1.46-3.535a5.007 5.007 0 0 0-3.54-1.465h-57.51Z" style="fill:#22b94b" transform="translate(-1498.867 -447.18)"/><path d="M1216.94 857.447a4.35 4.35 0 0 1 0-7.541c13.06-7.541 42.09-24.302 53.11-30.662a8.69 8.69 0 0 1 8.7 0c11.02 6.36 40.05 23.121 53.11 30.662a4.351 4.351 0 0 1 0 7.541c-13.06 7.541-42.09 24.302-53.11 30.663a8.696 8.696 0 0 1-8.7 0c-11.02-6.361-40.05-23.122-53.11-30.663Z" style="fill:url(#e)" transform="matrix(.55189 .41253 -.41253 .55188 -47.606 -875.41)"/><path d="M1216.94 857.447a4.35 4.35 0 0 1 0-7.541c13.06-7.541 42.09-24.302 53.11-30.662a8.69 8.69 0 0 1 8.7 0c11.02 6.36 40.05 23.121 53.11 30.662a4.351 4.351 0 0 1 0 7.541c-13.06 7.541-42.09 24.302-53.11 30.663a8.696 8.696 0 0 1-8.7 0c-11.02-6.361-40.05-23.122-53.11-30.663Z" style="fill:url(#f)" transform="matrix(.55189 -.41253 -.41253 -.55188 -47.606 1062.977)"/><defs><linearGradient id="a" x1="0" y1="0" x2="1" y2="0" gradientUnits="userSpaceOnUse" gradientTransform="scale(62.8001) rotate(11.731 -24.354 130.364)"><stop offset="0" style="stop-color:#0ab4ed;stop-opacity:1"/><stop offset="1" style="stop-color:#01c9fe;stop-opacity:1"/></linearGradient><linearGradient id="b" x1="0" y1="0" x2="1" y2="0" gradientUnits="userSpaceOnUse" gradientTransform="scale(-75.554) rotate(-14.88 -35.839 86.493)"><stop offset="0" style="stop-color:#09b7f0;stop-opacity:1"/><stop offset="1" style="stop-color:#00caff;stop-opacity:1"/></linearGradient><linearGradient id="c" x1="0" y1="0" x2="1" y2="0" gradientUnits="userSpaceOnUse" gradientTransform="scale(84.6626) rotate(-55.844 16.081 -14.633)"><stop offset="0" style="stop-color:#2876bc;stop-opacity:1"/><stop offset="1" style="stop-color:#01c9fe;stop-opacity:1"/></linearGradient><linearGradient id="d" x1="0" y1="0" x2="1" y2="0" gradientUnits="userSpaceOnUse" gradientTransform="scale(-98.3165) rotate(54.776 -3.21 -20.484)"><stop offset="0" style="stop-color:#22b94b;stop-opacity:1"/><stop offset="1" style="stop-color:#28e480;stop-opacity:1"/></linearGradient><linearGradient id="e" x1="0" y1="0" x2="1" y2="0" gradientUnits="userSpaceOnUse" gradientTransform="rotate(-179.902 670.735 424.85) scale(129.33919)"><stop offset="0" style="stop-color:#22b94b;stop-opacity:1"/><stop offset="1" style="stop-color:#28e480;stop-opacity:1"/></linearGradient><linearGradient id="f" x1="0" y1="0" x2="1" y2="0" gradientUnits="userSpaceOnUse" gradientTransform="matrix(-133.253 6.08227 6.08227 133.253 1341.31 850.421)"><stop offset="0" style="stop-color:#22b94b;stop-opacity:1"/><stop offset="1" style="stop-color:#28e480;stop-opacity:1"/></linearGradient></defs></svg>