<svg viewBox="0 0 3000 503" xmlns="http://www.w3.org/2000/svg" xml:space="preserve" style="fill-rule:evenodd;clip-rule:evenodd;stroke-linejoin:round;stroke-miterlimit:2"><g transform="scale(.85522 .74115)"><path style="fill:none" d="M0 0h3507.87v678.273H0z"/><clipPath id="a"><path d="M0 0h3507.87v678.273H0z"/></clipPath><g clip-path="url(#a)"><path d="M1334.41 236.313v-3.445h42.87v3.445h-4.57c-4.75 0-8.41 2.059-10.97 6.203-1.24 1.93-1.88 6.359-1.88 13.352v50.957c0 12.621-1.19 22.394-3.6 29.32-2.41 6.961-7.16 12.937-14.2 17.906-7.06 4.965-16.66 7.465-28.79 7.465-13.22 0-23.24-2.371-30.07-7.148-6.85-4.746-11.7-11.137-14.56-19.168-1.89-5.508-2.87-15.821-2.87-30.969v-49.125c0-7.719-1-12.781-3.07-15.184-2.04-2.402-5.36-3.609-9.93-3.609h-4.57v-3.445h52.31v3.445h-4.63c-5 0-8.59 1.617-10.73 4.906-1.49 2.211-2.22 6.863-2.22 13.887v54.785c0 4.871.42 10.473 1.28 16.766.88 6.297 2.43 11.23 4.69 14.738 2.25 3.512 5.51 6.426 9.78 8.699 4.27 2.313 9.47 3.449 15.66 3.449 7.92 0 14.99-1.804 21.23-5.378 6.25-3.571 10.54-8.161 12.83-13.754 2.29-5.602 3.44-15.063 3.44-28.411v-50.894c0-7.848-.85-12.75-2.5-14.711-2.34-2.719-5.79-4.082-10.35-4.082h-4.58Zm83.51 52.828c9.56-11.988 18.71-18 27.38-18 4.49 0 8.33 1.172 11.53 3.484 3.22 2.305 5.78 6.133 7.67 11.446 1.31 3.703 1.95 9.394 1.95 17.051v36.25c0 5.347.43 9.019 1.28 10.918.65 1.55 1.71 2.75 3.17 3.632 1.44.856 4.14 1.301 8.07 1.301v3.32h-40.45v-3.32h1.7c3.81 0 6.49-.633 7.98-1.84 1.53-1.199 2.59-2.968 3.17-5.312.25-.918.37-3.824.37-8.699V304.61c0-7.719-.98-13.317-2.9-16.832-1.95-3.477-5.21-5.219-9.77-5.219-7.07 0-14.14 4.02-21.15 12.055v44.758c0 5.726.31 9.269.97 10.628.83 1.805 1.99 3.133 3.45 3.957 1.46.821 4.42 1.266 8.86 1.266v3.32h-40.42v-3.32h1.8c4.14 0 6.97-1.109 8.43-3.289 1.44-2.219 2.17-6.394 2.17-12.562v-31.54c0-10.183-.22-16.378-.67-18.597-.43-2.246-1.13-3.762-2.05-4.555-.91-.789-2.16-1.199-3.71-1.199-1.64 0-3.66.473-5.97 1.391l-1.34-3.356 24.64-10.375h3.84v18Zm97.49-62.379c2.5 0 4.63.918 6.4 2.723 1.74 1.832 2.62 4.047 2.62 6.64 0 2.594-.88 4.805-2.62 6.672-1.77 1.836-3.9 2.785-6.4 2.785-2.5 0-4.63-.949-6.43-2.785-1.77-1.867-2.68-4.078-2.68-6.672 0-2.593.89-4.808 2.65-6.64 1.73-1.805 3.9-2.723 6.46-2.723Zm7.4 44.379v68.231c0 5.316.37 8.824 1.13 10.601.73 1.766 1.83 3.067 3.29 3.949 1.47.856 4.15 1.301 8.01 1.301v3.32h-39.72v-3.32c3.99 0 6.67-.414 8.01-1.234 1.37-.793 2.47-2.121 3.26-3.989.82-1.835 1.22-5.378 1.22-10.628v-32.735c0-9.207-.28-15.156-.8-17.875-.42-1.992-1.09-3.351-1.98-4.113-.88-.789-2.1-1.168-3.65-1.168-1.68 0-3.69.473-6.06 1.391l-1.25-3.356 24.61-10.375h3.93Zm27.55 2.5h38.47v3.449h-2.53c-2.31 0-4.08.571-5.3 1.739-1.21 1.203-1.83 2.753-1.83 4.746 0 2.152.64 4.711 1.89 7.683l19.01 46.879 19.11-48.648c1.37-3.446 2.04-6.071 2.04-7.879 0-.852-.25-1.551-.7-2.117-.68-.918-1.5-1.551-2.5-1.899-1.04-.347-3.08-.504-6.19-.504v-3.449h26.69v3.449c-3.08.25-5.24.883-6.43 1.926-2.07 1.871-3.93 4.969-5.6 9.27l-29.01 72.851h-3.65l-29.19-71.648c-1.31-3.321-2.56-5.727-3.74-7.18-1.22-1.457-2.72-2.656-4.58-3.641-1-.566-3.01-1.101-5.96-1.578v-3.449Zm118.48 31.981c-.07 12.621 2.86 22.492 8.83 29.671 5.94 7.149 12.95 10.723 20.96 10.723 5.36 0 10.02-1.519 13.99-4.59 3.96-3.031 7.25-8.285 9.93-15.683l2.77 1.832c-1.25 8.48-4.88 16.195-10.88 23.121-6.03 6.965-13.55 10.441-22.57 10.441-9.85 0-18.25-3.953-25.23-11.898-7.01-7.938-10.48-18.629-10.48-32.043 0-14.516 3.57-25.844 10.76-33.938 7.15-8.133 16.14-12.211 26.99-12.211 9.17 0 16.69 3.133 22.57 9.426 5.88 6.262 8.84 14.649 8.84 25.149h-56.48Zm0-5.379h37.84c-.31-5.438-.92-9.266-1.9-11.481-1.46-3.449-3.68-6.172-6.64-8.16-2.95-1.961-6.03-2.977-9.23-2.977-4.93 0-9.35 1.993-13.25 5.977-3.9 3.988-6.19 9.555-6.82 16.641Zm100.43-29.102v19.106c6.83-12.747 13.87-19.106 21.06-19.106 3.26 0 5.97 1.047 8.13 3.102 2.13 2.086 3.2 4.492 3.2 7.179 0 2.438-.76 4.461-2.31 6.137-1.56 1.676-3.39 2.504-5.55 2.504-2.07 0-4.42-1.078-7-3.199-2.59-2.121-4.51-3.196-5.76-3.196-1.07 0-2.23.602-3.48 1.836-2.68 2.532-5.45 6.707-8.29 12.524v40.679c0 4.684.56 8.258 1.69 10.665.79 1.675 2.16 3.066 4.11 4.171 1.98 1.11 4.78 1.68 8.47 1.68v3.32h-41.86v-3.32c4.17 0 7.28-.699 9.29-2.058 1.49-.981 2.53-2.563 3.14-4.711.27-1.079.42-4.051.42-9.016v-32.895c0-9.871-.18-15.757-.58-17.656-.36-1.867-1.09-3.258-2.13-4.109-1.03-.856-2.34-1.297-3.9-1.297-1.83 0-3.9.473-6.24 1.391l-.89-3.356 24.74-10.375h3.74Zm98.93 0v28.914h-2.95c-2.26-9.078-5.15-15.246-8.69-18.539-3.56-3.254-8.07-4.898-13.52-4.898-4.18 0-7.53 1.136-10.09 3.441-2.56 2.285-3.84 4.813-3.84 7.594 0 3.453.94 6.422 2.84 8.887 1.85 2.531 5.6 5.222 11.27 8.07l13.01 6.578c12.09 6.105 18.13 14.172 18.13 24.199 0 7.719-2.81 13.918-8.44 18.664-5.61 4.715-11.92 7.086-18.87 7.086-5.02 0-10.71-.918-17.15-2.785-1.94-.598-3.56-.918-4.81-.918-1.37 0-2.44.793-3.23 2.406h-2.93v-30.308h2.93c1.68 8.64 4.88 15.156 9.57 19.55 4.69 4.399 9.96 6.583 15.78 6.583 4.11 0 7.47-1.235 10.05-3.731 2.6-2.535 3.87-5.539 3.87-9.051 0-4.269-1.43-7.843-4.33-10.758-2.86-2.906-8.61-6.578-17.26-11.035-8.63-4.429-14.27-8.445-16.95-12.019-2.68-3.543-4.02-7.973-4.02-13.348 0-6.996 2.32-12.844 6.92-17.523 4.6-4.684 10.57-7.059 17.88-7.059 3.23 0 7.13.731 11.7 2.149 3.05.921 5.06 1.394 6.06 1.394.98 0 1.71-.219 2.26-.66.51-.445 1.15-1.395 1.86-2.883h2.95Zm48.23-44.379c2.5 0 4.63.918 6.39 2.723 1.74 1.832 2.63 4.047 2.63 6.64 0 2.594-.89 4.805-2.63 6.672-1.76 1.836-3.89 2.785-6.39 2.785-2.5 0-4.63-.949-6.43-2.785-1.77-1.867-2.68-4.078-2.68-6.672 0-2.593.88-4.808 2.65-6.64 1.73-1.805 3.9-2.723 6.46-2.723Zm7.4 44.379v68.231c0 5.316.37 8.824 1.13 10.601.73 1.766 1.83 3.067 3.29 3.949 1.46.856 4.14 1.301 8.01 1.301v3.32h-39.72v-3.32c3.98 0 6.66-.414 8.01-1.234 1.37-.793 2.46-2.121 3.25-3.989.83-1.835 1.22-5.378 1.22-10.628v-32.735c0-9.207-.27-15.156-.79-17.875-.43-1.992-1.09-3.351-1.98-4.113-.88-.789-2.1-1.168-3.65-1.168-1.68 0-3.69.473-6.06 1.391l-1.25-3.356 24.61-10.375h3.93Zm55.48-25.367v27.867h19.1v6.484h-19.1V335.2c0 5.504.76 9.203 2.28 11.097 1.5 1.934 3.45 2.883 5.82 2.883 1.98 0 3.87-.633 5.73-1.898 1.83-1.266 3.26-3.133 4.3-5.602h3.47c-2.11 6.043-5.03 10.602-8.84 13.668-3.81 3.067-7.73 4.586-11.78 4.586-2.75 0-5.43-.789-8.05-2.375-2.62-1.578-4.54-3.824-5.79-6.769-1.24-2.907-1.88-7.43-1.88-13.571v-57.094h-12.93v-3.035c3.27-1.359 6.61-3.668 10.02-6.898 3.42-3.254 6.5-7.113 9.15-11.547 1.37-2.336 3.29-6.641 5.73-12.871h2.77Zm31.53 27.867h38.11v3.449h-1.86c-2.67 0-4.69.602-6.03 1.801-1.34 1.203-2.01 2.691-2.01 4.496 0 2.399.98 5.754 2.96 9.992l19.89 42.828 18.31-46.878c1-2.559 1.49-5.059 1.49-7.528 0-1.105-.21-1.929-.61-2.5-.48-.66-1.21-1.199-2.22-1.609-1.03-.414-2.8-.602-5.36-.602v-3.449h26.6v3.449c-2.2.25-3.91.727-5.09 1.485-1.19.726-2.5 2.121-3.93 4.175-.55.852-1.56 3.227-3.05 7.118l-33.27 84.714c-3.23 8.223-7.43 14.422-12.64 18.629-5.21 4.211-10.2 6.297-15.05 6.297-3.51 0-6.4-1.043-8.65-3.164-2.26-2.09-3.39-4.492-3.39-7.215 0-2.593.83-4.679 2.44-6.261 1.65-1.582 3.9-2.371 6.76-2.371 1.96 0 4.64.695 8.02 2.054 2.38.918 3.87 1.391 4.47 1.391 1.77 0 3.72-.981 5.86-2.879 2.1-1.93 4.23-5.629 6.36-11.133l5.82-14.707-29.36-64.058c-.92-1.899-2.32-4.301-4.3-7.118-1.49-2.179-2.71-3.636-3.66-4.363-1.37-.98-3.56-1.867-6.61-2.594v-3.449Zm181.73-2.5c12.37 0 22.3 4.906 29.82 14.645 6.37 8.355 9.54 17.937 9.54 28.722 0 7.625-1.76 15.313-5.27 23.094-3.5 7.781-8.35 13.664-14.5 17.621-6.16 3.953-13.01 5.914-20.56 5.914-12.34 0-22.12-5.094-29.37-15.281-6.13-8.606-9.21-18.25-9.21-28.91 0-7.813 1.86-15.531 5.58-23.215 3.72-7.688 8.62-13.383 14.69-17.055 6.06-3.699 12.49-5.535 19.28-5.535Zm-2.77 6.043c-3.14 0-6.31.949-9.51 2.91-3.16 1.961-5.76 5.348-7.71 10.25-1.98 4.871-2.95 11.133-2.95 18.789 0 12.367 2.37 23.028 7.1 31.981 4.72 8.949 10.97 13.445 18.7 13.445 5.76 0 10.52-2.469 14.29-7.406 3.75-4.965 5.61-13.446 5.61-25.492 0-15.09-3.11-26.954-9.38-35.59-4.21-5.946-9.6-8.887-16.15-8.887Zm95.26 3.133v55.797c0 7.906.85 12.906 2.5 15.027 2.22 2.719 5.15 4.082 8.83 4.082h7.44v3.32h-48.84v-3.32h3.66c2.37 0 4.56-.633 6.52-1.867 1.95-1.234 3.32-2.91 4.05-5 .76-2.117 1.12-6.199 1.12-12.242v-55.797h-15.89v-6.676h15.89v-5.535c0-8.477 1.32-15.656 3.94-21.508 2.62-5.887 6.61-10.629 12-14.234 5.39-3.61 11.42-5.414 18.16-5.414 6.24 0 12.01 2.09 17.24 6.297 3.45 2.785 5.15 5.914 5.15 9.367 0 1.859-.76 3.601-2.31 5.218-1.56 1.641-3.2 2.465-5 2.465-1.37 0-2.81-.507-4.33-1.515-1.52-1.016-3.38-3.231-5.57-6.582-2.19-3.387-4.24-5.633-6.06-6.832-1.86-1.172-3.9-1.743-6.16-1.743-2.74 0-5.06.762-6.97 2.278-1.89 1.484-3.27 3.859-4.12 7.019-.82 3.2-1.25 11.395-1.25 24.614v6.105h21.08v6.676h-21.08Zm152.73-50.297v43.461h-3.29c-1.09-8.352-3.02-14.992-5.76-19.926-2.77-4.965-6.73-8.89-11.85-11.769-5.12-2.907-10.39-4.364-15.87-4.364-6.19 0-11.31 1.957-15.36 5.883-4.05 3.926-6.06 8.383-6.06 13.379 0 3.828 1.28 7.344 3.84 10.473 3.69 4.648 12.45 10.816 26.32 18.535 11.3 6.297 19.04 11.137 23.15 14.523 4.15 3.352 7.34 7.336 9.57 11.887 2.22 4.594 3.35 9.371 3.35 14.363 0 9.524-3.56 17.715-10.66 24.614-7.13 6.894-16.27 10.343-27.45 10.343-3.53 0-6.82-.285-9.93-.855-1.83-.281-5.67-1.422-11.46-3.352-5.79-1.965-9.47-2.941-11.03-2.941-1.49 0-2.65.473-3.53 1.391-.85.917-1.49 2.843-1.92 5.757h-3.29v-43.086h3.29c1.56 9.016 3.65 15.754 6.28 20.25 2.61 4.457 6.6 8.188 12 11.161 5.36 2.941 11.27 4.429 17.7 4.429 7.43 0 13.31-2.023 17.64-6.105 4.3-4.082 6.46-8.887 6.46-14.453 0-3.102-.82-6.203-2.44-9.364-1.64-3.164-4.2-6.074-7.65-8.793-2.31-1.867-8.65-5.793-19.01-11.832-10.35-6.011-17.7-10.82-22.09-14.394-4.38-3.606-7.67-7.559-9.96-11.863-2.26-4.332-3.38-9.11-3.38-14.293 0-9.016 3.32-16.766 9.99-23.286 6.68-6.515 15.15-9.773 25.44-9.773 6.43 0 13.26 1.613 20.44 4.902 3.32 1.551 5.7 2.309 7.04 2.309 1.56 0 2.84-.473 3.81-1.422.98-.98 1.77-2.91 2.38-5.789h3.29Zm102.15 96.258c-2.19 11.199-6.52 19.801-12.95 25.812-6.43 6.043-13.53 9.047-21.33 9.047-9.28 0-17.39-4.051-24.28-12.148-6.91-8.098-10.35-19.012-10.35-32.801 0-13.348 3.83-24.199 11.48-32.52 7.65-8.351 16.82-12.527 27.51-12.527 8.04 0 14.66 2.215 19.83 6.645 5.19 4.398 7.78 8.984 7.78 13.761 0 2.34-.74 4.235-2.2 5.692-1.46 1.453-3.5 2.183-6.13 2.183-3.5 0-6.15-1.172-7.94-3.511-1.01-1.297-1.68-3.797-1.98-7.434-.34-3.641-1.56-6.422-3.63-8.352-2.1-1.832-4.96-2.753-8.65-2.753-5.97 0-10.76 2.281-14.39 6.835-4.81 6.071-7.22 14.075-7.22 24.008 0 10.121 2.38 19.075 7.19 26.825 4.79 7.75 11.25 11.64 19.41 11.64 5.82 0 11.06-2.058 15.69-6.203 3.29-2.844 6.46-8 9.57-15.496l2.59 1.297Zm41.61-99.516c2.5 0 4.63.918 6.4 2.723 1.74 1.832 2.62 4.047 2.62 6.64 0 2.594-.88 4.805-2.62 6.672-1.77 1.836-3.9 2.785-6.4 2.785-2.5 0-4.62-.949-6.42-2.785-1.77-1.867-2.68-4.078-2.68-6.672 0-2.593.88-4.808 2.64-6.64 1.74-1.805 3.91-2.723 6.46-2.723Zm7.41 44.379v68.231c0 5.316.36 8.824 1.13 10.601.73 1.766 1.82 3.067 3.29 3.949 1.46.856 4.14 1.301 8.01 1.301v3.32h-39.73v-3.32c3.99 0 6.67-.414 8.01-1.234 1.37-.793 2.47-2.121 3.26-3.989.82-1.835 1.22-5.378 1.22-10.628v-32.735c0-9.207-.27-15.156-.79-17.875-.43-1.992-1.1-3.351-1.98-4.113-.89-.789-2.11-1.168-3.66-1.168-1.67 0-3.68.473-6.06 1.391l-1.25-3.356 24.61-10.375h3.94Zm45.48 34.481c-.06 12.621 2.86 22.492 8.84 29.671 5.94 7.149 12.95 10.723 20.95 10.723 5.37 0 10.03-1.519 13.99-4.59 3.96-3.031 7.25-8.285 9.93-15.683l2.77 1.832c-1.24 8.48-4.87 16.195-10.87 23.121-6.03 6.965-13.56 10.441-22.57 10.441-9.85 0-18.25-3.953-25.23-11.898-7.01-7.938-10.48-18.629-10.48-32.043 0-14.516 3.56-25.844 10.75-33.938 7.16-8.133 16.15-12.211 26.99-12.211 9.18 0 16.7 3.133 22.58 9.426 5.88 6.262 8.83 14.649 8.83 25.149h-56.48Zm0-5.379h37.84c-.3-5.438-.92-9.266-1.89-11.481-1.46-3.449-3.69-6.172-6.64-8.16-2.96-1.961-6.03-2.977-9.23-2.977-4.94 0-9.35 1.993-13.25 5.977-3.9 3.988-6.19 9.555-6.83 16.641Zm100.36-11.102c9.56-11.988 18.7-18 27.38-18 4.48 0 8.32 1.172 11.52 3.484 3.23 2.305 5.79 6.133 7.68 11.446 1.3 3.703 1.94 9.394 1.94 17.051v36.25c0 5.347.43 9.019 1.29 10.918.64 1.55 1.71 2.75 3.16 3.632 1.44.856 4.15 1.301 8.07 1.301v3.32h-40.45v-3.32h1.71c3.8 0 6.49-.633 7.98-1.84 1.52-1.199 2.58-2.968 3.16-5.312.25-.918.37-3.824.37-8.699V304.61c0-7.719-.97-13.317-2.9-16.832-1.94-3.477-5.2-5.219-9.77-5.219-7.07 0-14.14 4.02-21.14 12.055v44.758c0 5.726.3 9.269.97 10.628.82 1.805 1.98 3.133 3.44 3.957 1.47.821 4.42 1.266 8.86 1.266v3.32h-40.42v-3.32h1.8c4.14 0 6.98-1.109 8.44-3.289 1.43-2.219 2.16-6.394 2.16-12.562v-31.54c0-10.183-.21-16.378-.67-18.597-.42-2.246-1.13-3.762-2.04-4.555-.91-.789-2.16-1.199-3.71-1.199-1.65 0-3.67.473-5.98 1.391l-1.34-3.356 24.65-10.375h3.84v18Zm146.13 37.137c-2.18 11.199-6.52 19.801-12.94 25.812-6.43 6.043-13.53 9.047-21.33 9.047-9.29 0-17.39-4.051-24.28-12.148-6.92-8.098-10.36-19.012-10.36-32.801 0-13.348 3.84-24.199 11.49-32.52 7.65-8.351 16.82-12.527 27.51-12.527 8.04 0 14.65 2.215 19.83 6.645 5.19 4.398 7.77 8.984 7.77 13.761 0 2.34-.73 4.235-2.19 5.692-1.46 1.453-3.5 2.183-6.13 2.183-3.5 0-6.15-1.172-7.94-3.511-1.02-1.297-1.68-3.797-1.99-7.434-.33-3.641-1.55-6.422-3.62-8.352-2.11-1.832-4.97-2.753-8.65-2.753-5.97 0-10.76 2.281-14.39 6.835-4.81 6.071-7.22 14.075-7.22 24.008 0 10.121 2.38 19.075 7.19 26.825 4.79 7.75 11.25 11.64 19.41 11.64 5.82 0 11.06-2.058 15.69-6.203 3.29-2.844 6.46-8 9.57-15.496l2.58 1.297Zm34.58-20.656c-.06 12.621 2.87 22.492 8.84 29.671 5.94 7.149 12.95 10.723 20.96 10.723 5.36 0 10.02-1.519 13.98-4.59 3.96-3.031 7.25-8.285 9.93-15.683l2.78 1.832c-1.25 8.48-4.88 16.195-10.88 23.121-6.03 6.965-13.56 10.441-22.57 10.441-9.84 0-18.25-3.953-25.23-11.898-7.01-7.938-10.48-18.629-10.48-32.043 0-14.516 3.56-25.844 10.76-33.938 7.15-8.133 16.14-12.211 26.99-12.211 9.17 0 16.7 3.133 22.57 9.426 5.88 6.262 8.84 14.649 8.84 25.149h-56.49Zm0-5.379h37.84c-.3-5.438-.91-9.266-1.89-11.481-1.46-3.449-3.68-6.172-6.64-8.16-2.95-1.961-6.03-2.977-9.23-2.977-4.93 0-9.35 1.993-13.25 5.977-3.9 3.988-6.19 9.555-6.83 16.641Zm159.4 46.054c-8.37 6.743-13.65 10.629-15.81 11.676a23.21 23.21 0 0 1-10.24 2.344c-5.66 0-10.33-2.027-13.98-6.043-3.65-4.02-5.49-9.305-5.49-15.848 0-4.148.89-7.719 2.68-10.758 2.44-4.171 6.68-8.128 12.71-11.863 6.03-3.703 16.08-8.187 30.13-13.504v-3.351c0-8.446-1.28-14.27-3.87-17.434-2.59-3.133-6.37-4.711-11.3-4.711-3.75 0-6.73 1.043-8.93 3.16-2.26 2.09-3.38 4.496-3.38 7.215l.18 5.375c0 2.848-.7 5.031-2.1 6.582-1.4 1.551-3.23 2.313-5.48 2.313-2.23 0-4.02-.793-5.42-2.41-1.41-1.61-2.11-3.793-2.11-6.579 0-5.312 2.62-10.183 7.86-14.644 5.24-4.43 12.58-6.676 22.05-6.676 7.26 0 13.2 1.266 17.86 3.797 3.51 1.93 6.09 4.934 7.77 9.016 1.07 2.656 1.59 8.066 1.59 16.289v28.816c0 8.102.15 13.07.45 14.902.31 1.801.8 3.036 1.46 3.637.7.633 1.5.949 2.38.949.95 0 1.8-.222 2.5-.664 1.25-.793 3.66-3.07 7.22-6.769v5.183c-6.64 9.27-13.01 13.922-19.1 13.922-2.9 0-5.21-1.043-6.95-3.16-1.73-2.094-2.62-5.695-2.68-10.762Zm0-6.007v-32.356c-8.99 3.727-14.77 6.356-17.39 7.871-4.73 2.723-8.07 5.567-10.09 8.543-2.04 2.973-3.05 6.199-3.05 9.742 0 4.43 1.28 8.133 3.84 11.075 2.56 2.906 5.52 4.394 8.84 4.394 4.54 0 10.48-3.102 17.85-9.269Zm67.79-51.149c9.56-11.988 18.7-18 27.38-18 4.48 0 8.32 1.172 11.52 3.484 3.23 2.305 5.79 6.133 7.68 11.446 1.31 3.703 1.95 9.394 1.95 17.051v36.25c0 5.347.43 9.019 1.28 10.918.64 1.55 1.7 2.75 3.17 3.632 1.43.856 4.14 1.301 8.07 1.301v3.32h-40.46v-3.32h1.71c3.8 0 6.48-.633 7.98-1.84 1.52-1.199 2.59-2.968 3.17-5.312.24-.918.36-3.824.36-8.699V304.61c0-7.719-.97-13.317-2.89-16.832-1.95-3.477-5.21-5.219-9.78-5.219-7.07 0-14.14 4.02-21.14 12.055v44.758c0 5.726.3 9.269.97 10.628.83 1.805 1.98 3.133 3.44 3.957 1.46.821 4.42 1.266 8.87 1.266v3.32h-40.43v-3.32h1.8c4.14 0 6.97-1.109 8.44-3.289 1.43-2.219 2.16-6.394 2.16-12.562v-31.54c0-10.183-.21-16.378-.67-18.597-.43-2.246-1.13-3.762-2.04-4.555-.92-.789-2.16-1.199-3.72-1.199-1.64 0-3.66.473-5.97 1.391l-1.34-3.356 24.65-10.375h3.84v18Zm134.44 59.848c-4 4.336-7.89 7.433-11.7 9.332-3.81 1.867-7.92 2.816-12.31 2.816-8.93 0-16.72-3.89-23.4-11.64-6.64-7.75-9.99-17.715-9.99-29.864 0-12.176 3.69-23.308 11.09-33.433 7.38-10.09 16.85-15.153 28.46-15.153 7.19 0 13.16 2.403 17.85 7.153v-15.664c0-9.711-.21-15.657-.67-17.903-.45-2.211-1.16-3.73-2.1-4.519-.95-.828-2.14-1.203-3.57-1.203-1.55 0-3.6.468-6.15 1.484l-1.16-3.258 24.37-10.375h4v98.153c0 9.937.23 16.007.67 18.191.45 2.215 1.15 3.734 2.16 4.586.97.887 2.13 1.297 3.41 1.297 1.61 0 3.78-.504 6.43-1.582l1 3.258-24.28 10.472h-4.11v-12.148Zm0-6.485v-43.746c-.37-4.176-1.43-8.035-3.2-11.48-1.8-3.449-4.17-6.078-7.1-7.817-2.95-1.769-5.82-2.656-8.62-2.656-5.24 0-9.9 2.438-14.02 7.305-5.41 6.453-8.13 15.816-8.13 28.187 0 12.493 2.62 22.047 7.86 28.688 5.24 6.644 11.06 9.965 17.49 9.965 5.42 0 10.66-2.813 15.72-8.446Zm176.12-109.636 1.34 29.48h-3.41c-.64-5.187-1.53-8.887-2.68-11.133-1.83-3.574-4.3-6.203-7.34-7.91-3.08-1.707-7.1-2.562-12.1-2.562h-17.06v96.035c0 7.719.82 12.527 2.4 14.453 2.26 2.598 5.77 3.894 10.45 3.894h4.21v3.418h-51.33v-3.418h4.29c5.12 0 8.74-1.609 10.88-4.835 1.31-1.965 1.98-6.489 1.98-13.512v-96.035h-14.56c-5.64 0-9.66.445-12.04 1.297-3.11 1.171-5.75 3.449-7.95 6.769-2.2 3.356-3.5 7.844-3.93 13.539h-3.38l1.43-29.48h98.8Zm21.72 72.754c-.06 12.621 2.86 22.492 8.83 29.671 5.94 7.149 12.96 10.723 20.97 10.723 5.36 0 10.02-1.519 13.98-4.59 3.96-3.031 7.25-8.285 9.94-15.683l2.76 1.832c-1.25 8.48-4.87 16.195-10.87 23.121-6.04 6.965-13.56 10.441-22.58 10.441-9.84 0-18.24-3.953-25.22-11.898-7.01-7.938-10.49-18.629-10.49-32.043 0-14.516 3.57-25.844 10.76-33.938 7.16-8.133 16.15-12.211 26.99-12.211 9.17 0 16.7 3.133 22.58 9.426 5.88 6.262 8.83 14.649 8.83 25.149h-56.48Zm0-5.379h37.84c-.3-5.438-.91-9.266-1.89-11.481-1.47-3.449-3.69-6.172-6.64-8.16-2.96-1.961-6.03-2.977-9.24-2.977-4.93 0-9.35 1.993-13.24 5.977-3.91 3.988-6.19 9.555-6.83 16.641M3620.94 326.278c-2.19 11.199-6.52 19.801-12.95 25.812-6.42 6.043-13.52 9.047-21.33 9.047-9.29 0-17.39-4.051-24.28-12.148-6.91-8.098-10.35-19.012-10.35-32.801 0-13.348 3.83-24.199 11.48-32.52 7.65-8.351 16.82-12.527 27.51-12.527 8.05 0 14.66 2.215 19.84 6.645 5.18 4.398 7.77 8.984 7.77 13.761 0 2.34-.74 4.235-2.2 5.692-1.46 1.453-3.5 2.183-6.12 2.183-3.51 0-6.16-1.172-7.95-3.511-1.01-1.297-1.68-3.797-1.98-7.434-.34-3.641-1.56-6.422-3.63-8.352-2.1-1.832-4.96-2.753-8.65-2.753-5.97 0-10.76 2.281-14.38 6.835-4.82 6.071-7.22 14.075-7.22 24.008 0 10.121 2.37 19.075 7.19 26.825 4.78 7.75 11.24 11.64 19.4 11.64 5.82 0 11.06-2.058 15.69-6.203 3.29-2.844 6.46-8 9.57-15.496l2.59 1.297Zm44.85-99.516v62.094c6.57-7.527 11.82-12.367 15.68-14.52 3.87-2.121 7.74-3.195 11.62-3.195 4.62 0 8.61 1.332 11.96 3.984 3.33 2.661 5.79 6.836 7.41 12.528 1.12 3.953 1.67 11.172 1.67 21.668v30.051c0 5.347.43 9.05 1.28 11.011.58 1.485 1.59 2.657 3.02 3.539 1.43.856 4.05 1.301 7.86 1.301v3.32h-40.16v-3.32h1.86c3.81 0 6.46-.633 7.95-1.84 1.49-1.199 2.53-2.968 3.11-5.312.18-.981.27-3.891.27-8.699v-30.051c0-9.266-.45-15.34-1.36-18.25-.95-2.91-2.41-5.059-4.42-6.516-2.04-1.457-4.48-2.183-7.34-2.183-2.9 0-5.95.789-9.08 2.406-3.17 1.609-6.95 4.836-11.33 9.742v44.852c0 5.793.3 9.394.91 10.816.64 1.426 1.79 2.629 3.5 3.578 1.68.949 4.6 1.457 8.78 1.457v3.32h-40.53v-3.32c3.63 0 6.49-.605 8.57-1.773 1.18-.633 2.16-1.805 2.86-3.508.73-1.746 1.07-5.254 1.07-10.57v-76.836c0-9.711-.22-15.657-.68-17.903-.42-2.211-1.12-3.73-2.04-4.519-.91-.828-2.16-1.203-3.71-1.203-1.25 0-3.26.468-6.07 1.484l-1.24-3.258 24.46-10.375h4.12Zm100.35 62.379c9.56-11.988 18.7-18 27.38-18 4.48 0 8.32 1.172 11.52 3.484 3.23 2.305 5.79 6.133 7.68 11.446 1.31 3.703 1.95 9.394 1.95 17.051v36.25c0 5.347.43 9.019 1.28 10.918.64 1.55 1.71 2.75 3.17 3.632 1.43.856 4.14 1.301 8.07 1.301v3.32h-40.46v-3.32h1.71c3.81 0 6.49-.633 7.98-1.84 1.52-1.199 2.59-2.968 3.17-5.312.24-.918.36-3.824.36-8.699V304.61c0-7.719-.97-13.317-2.89-16.832-1.95-3.477-5.21-5.219-9.78-5.219-7.07 0-14.14 4.02-21.14 12.055v44.758c0 5.726.3 9.269.97 10.628.83 1.805 1.98 3.133 3.44 3.957 1.47.821 4.42 1.266 8.87 1.266v3.32h-40.43v-3.32h1.8c4.14 0 6.98-1.109 8.44-3.289 1.43-2.219 2.16-6.394 2.16-12.562v-31.54c0-10.183-.21-16.378-.67-18.597-.42-2.246-1.13-3.762-2.04-4.555-.91-.789-2.16-1.199-3.72-1.199-1.64 0-3.66.473-5.97 1.391l-1.34-3.356 24.65-10.375h3.84v18Zm116.68-18c12.37 0 22.3 4.906 29.82 14.645 6.38 8.355 9.54 17.937 9.54 28.722 0 7.625-1.76 15.313-5.27 23.094-3.5 7.781-8.35 13.664-14.5 17.621-6.16 3.953-13.01 5.914-20.56 5.914-12.34 0-22.12-5.094-29.37-15.281-6.12-8.606-9.2-18.25-9.2-28.91 0-7.813 1.85-15.531 5.57-23.215 3.72-7.688 8.62-13.383 14.69-17.055 6.06-3.699 12.49-5.535 19.28-5.535Zm-2.77 6.043c-3.14 0-6.31.949-9.51 2.91-3.17 1.961-5.75 5.348-7.7 10.25-1.98 4.871-2.96 11.133-2.96 18.789 0 12.367 2.38 23.028 7.1 31.981 4.72 8.949 10.97 13.445 18.7 13.445 5.76 0 10.51-2.469 14.29-7.406 3.75-4.965 5.61-13.446 5.61-25.492 0-15.09-3.11-26.954-9.39-35.59-4.2-5.946-9.59-8.887-16.14-8.887Zm91.42-50.422v112.61c0 5.316.4 8.824 1.13 10.57.73 1.703 1.89 3.031 3.44 3.918 1.56.887 4.42 1.363 8.66 1.363v3.32h-40.07v-3.32c3.75 0 6.31-.414 7.65-1.234 1.37-.793 2.47-2.121 3.23-3.989.76-1.835 1.16-5.378 1.16-10.628v-77.118c0-9.586-.22-15.468-.61-17.648-.43-2.184-1.1-3.703-2.01-4.492-.95-.828-2.1-1.203-3.54-1.203-1.55 0-3.5.468-5.88 1.484l-1.52-3.258 24.37-10.375h3.99Zm71.81 44.379c12.37 0 22.3 4.906 29.83 14.645 6.36 8.355 9.54 17.937 9.54 28.722 0 7.625-1.77 15.313-5.28 23.094-3.5 7.781-8.35 13.664-14.5 17.621-6.16 3.953-13.01 5.914-20.56 5.914-12.34 0-22.12-5.094-29.37-15.281-6.13-8.606-9.2-18.25-9.2-28.91 0-7.813 1.85-15.531 5.57-23.215 3.72-7.688 8.62-13.383 14.69-17.055 6.06-3.699 12.49-5.535 19.28-5.535Zm-2.77 6.043c-3.14 0-6.31.949-9.51 2.91-3.17 1.961-5.75 5.348-7.71 10.25-1.97 4.871-2.95 11.133-2.95 18.789 0 12.367 2.38 23.028 7.1 31.981 4.72 8.949 10.97 13.445 18.7 13.445 5.77 0 10.52-2.469 14.29-7.406 3.75-4.965 5.61-13.446 5.61-25.492 0-15.09-3.11-26.954-9.38-35.59-4.21-5.946-9.6-8.887-16.15-8.887Zm85.18 50.391c-4.99-2.532-8.83-6.043-11.52-10.598-2.67-4.555-3.99-9.551-3.99-15.055 0-8.418 3.05-15.629 9.14-21.703 6.09-6.039 13.89-9.078 23.43-9.078 7.8 0 14.53 1.992 20.26 5.949h17.3c2.57 0 4.06.063 4.48.219.4.156.71.414.89.793.36.566.55 1.551.55 2.973 0 1.609-.16 2.718-.46 3.32-.19.316-.48.574-.94.758-.44.191-1.95.258-4.52.258h-10.6c3.32 4.457 5 10.152 5 17.082 0 7.906-2.92 14.644-8.74 20.273-5.86 5.629-13.68 8.445-23.49 8.445-4.06 0-8.17-.629-12.4-1.863-2.62 2.336-4.39 4.395-5.31 6.164-.94 1.774-1.39 3.258-1.39 4.492 0 1.047.48 2.059 1.46 3.067 1 .984 2.92 1.683 5.75 2.125 1.68.25 5.86.472 12.53.66 12.24.285 20.2.73 23.82 1.297 5.52.793 9.94 2.91 13.25 6.39 3.29 3.45 4.94 7.719 4.94 12.778 0 6.992-3.14 13.543-9.45 19.648-9.29 9.012-21.38 13.539-36.31 13.539-11.49 0-21.2-2.687-29.13-8.07-4.45-3.098-6.67-6.293-6.67-9.645 0-1.484.31-2.941.98-4.429 1-2.309 3.1-5.477 6.24-9.551.43-.57 3.44-3.891 9.11-10-3.11-1.93-5.27-3.637-6.55-5.156-1.28-1.516-1.92-3.223-1.92-5.153 0-2.152.82-4.683 2.53-7.593 1.71-2.911 5.61-7.02 11.73-12.336Zm15.54-51.973c-4.39 0-8.1 1.832-11.06 5.473-2.99 3.636-4.48 9.234-4.48 16.765 0 9.778 2.04 17.336 6.1 22.715 3.07 4.078 7 6.102 11.75 6.102 4.54 0 8.26-1.742 11.16-5.285 2.92-3.508 4.38-9.043 4.38-16.575 0-9.836-2.04-17.519-6.15-23.09-3.05-4.082-6.95-6.105-11.7-6.105Zm-16.43 82.941c-2.8 3.161-4.9 6.075-6.33 8.793-1.43 2.719-2.13 5.219-2.13 7.528 0 2.945 1.71 5.539 5.18 7.785 5.94 3.828 14.53 5.719 25.77 5.719 10.72 0 18.61-1.957 23.7-5.879 5.09-3.926 7.65-8.102 7.65-12.559 0-3.195-1.52-5.473-4.57-6.836-3.08-1.359-9.23-2.179-18.37-2.433-13.41-.344-23.7-1.075-30.9-2.118Zm74.92-84.902h38.12v3.449h-1.87c-2.67 0-4.69.602-6.03 1.801-1.34 1.203-2.01 2.691-2.01 4.496 0 2.399.98 5.754 2.96 9.992l19.9 42.828 18.3-46.878c1-2.559 1.49-5.059 1.49-7.528 0-1.105-.21-1.929-.61-2.5-.48-.66-1.22-1.199-2.22-1.609-1.04-.414-2.8-.602-5.36-.602v-3.449h26.59v3.449c-2.19.25-3.89.727-5.09 1.485-1.18.726-2.49 2.121-3.93 4.175-.54.852-1.55 3.227-3.04 7.118l-33.26 84.714c-3.24 8.223-7.44 14.422-12.65 18.629-5.21 4.211-10.21 6.297-15.06 6.297-3.49 0-6.39-1.043-8.64-3.164-2.26-2.09-3.38-4.492-3.38-7.215 0-2.593.82-4.679 2.43-6.261 1.65-1.582 3.9-2.371 6.77-2.371 1.94 0 4.62.695 8.01 2.054 2.37.918 3.86 1.391 4.48 1.391 1.76 0 3.71-.981 5.84-2.879 2.11-1.93 4.24-5.629 6.38-11.133l5.82-14.707-29.38-64.058c-.91-1.899-2.32-4.301-4.29-7.118-1.49-2.179-2.71-3.636-3.66-4.363-1.37-.98-3.56-1.867-6.61-2.594v-3.449Zm181.73-2.5c12.37 0 22.3 4.906 29.83 14.645 6.36 8.355 9.53 17.937 9.53 28.722 0 7.625-1.76 15.313-5.27 23.094-3.5 7.781-8.35 13.664-14.5 17.621-6.16 3.953-13.01 5.914-20.57 5.914-12.33 0-22.11-5.094-29.36-15.281-6.13-8.606-9.2-18.25-9.2-28.91 0-7.813 1.85-15.531 5.57-23.215 3.72-7.688 8.63-13.383 14.68-17.055 6.07-3.699 12.5-5.535 19.29-5.535Zm-2.77 6.043c-3.14 0-6.31.949-9.51 2.91-3.17 1.961-5.76 5.348-7.71 10.25-1.98 4.871-2.95 11.133-2.95 18.789 0 12.367 2.38 23.028 7.1 31.981 4.72 8.949 10.97 13.445 18.7 13.445 5.76 0 10.51-2.469 14.29-7.406 3.75-4.965 5.61-13.446 5.61-25.492 0-15.09-3.11-26.954-9.39-35.59-4.2-5.946-9.59-8.887-16.14-8.887Zm95.26 3.133v55.797c0 7.906.85 12.906 2.5 15.027 2.22 2.719 5.15 4.082 8.83 4.082h7.44v3.32h-48.84v-3.32h3.65c2.38 0 4.58-.633 6.53-1.867 1.95-1.234 3.32-2.91 4.05-5 .76-2.117 1.13-6.199 1.13-12.242v-55.797h-15.91v-6.676h15.91v-5.535c0-8.477 1.31-15.656 3.93-21.508 2.62-5.887 6.61-10.629 12-14.234 5.39-3.61 11.43-5.414 18.16-5.414 6.24 0 12 2.09 17.24 6.297 3.45 2.785 5.15 5.914 5.15 9.367 0 1.859-.76 3.601-2.32 5.218-1.55 1.641-3.19 2.465-4.99 2.465-1.37 0-2.8-.507-4.33-1.515-1.52-1.016-3.38-3.231-5.57-6.582-2.2-3.387-4.24-5.633-6.07-6.832-1.86-1.172-3.89-1.743-6.15-1.743-2.74 0-5.06.762-6.98 2.278-1.88 1.484-3.26 3.859-4.11 7.019-.82 3.2-1.25 11.395-1.25 24.614v6.105h21.08v6.676h-21.08Zm178.96-50.297 2.77 42.703h-2.77c-3.69-12.781-8.96-21.984-15.78-27.617-6.86-5.625-15.05-8.445-24.65-8.445-8.04 0-15.29 2.121-21.78 6.363-6.49 4.234-11.58 10.976-15.3 20.242-3.71 9.266-5.57 20.813-5.57 34.574 0 11.356 1.74 21.227 5.27 29.575 3.5 8.32 8.78 14.714 15.84 19.171 7.04 4.461 15.08 6.672 24.13 6.672 7.86 0 14.78-1.738 20.81-5.25 6-3.48 12.61-10.406 19.8-20.781l2.77 1.832c-6.06 11.199-13.15 19.395-21.23 24.582-8.1 5.188-17.71 7.781-28.85 7.781-20.05 0-35.59-7.718-46.59-23.187-8.19-11.485-12.31-25.024-12.31-40.586 0-12.524 2.72-24.07 8.11-34.57 5.43-10.504 12.89-18.633 22.36-24.422 9.51-5.758 19.86-8.637 31.11-8.637 8.75 0 17.39 2.215 25.9 6.641 2.49 1.363 4.29 2.058 5.36 2.058 1.58 0 2.99-.601 4.17-1.773 1.55-1.641 2.65-3.985 3.32-6.926h3.11Zm50.76-3.258v62.094c6.57-7.527 11.82-12.367 15.68-14.52 3.87-2.121 7.74-3.195 11.61-3.195 4.63 0 8.62 1.332 11.97 3.984 3.33 2.661 5.79 6.836 7.41 12.528 1.12 3.953 1.67 11.172 1.67 21.668v30.051c0 5.347.43 9.05 1.28 11.011.58 1.485 1.59 2.657 3.02 3.539 1.43.856 4.05 1.301 7.86 1.301v3.32H4724v-3.32h1.86c3.81 0 6.46-.633 7.95-1.84 1.5-1.199 2.53-2.968 3.11-5.312.19-.981.28-3.891.28-8.699v-30.051c0-9.266-.46-15.34-1.38-18.25-.94-2.91-2.4-5.059-4.41-6.516-2.04-1.457-4.48-2.183-7.34-2.183-2.9 0-5.94.789-9.09 2.406-3.16 1.609-6.94 4.836-11.32 9.742v44.852c0 5.793.3 9.394.91 10.816.64 1.426 1.79 2.629 3.5 3.578 1.68.949 4.6 1.457 8.77 1.457v3.32h-40.51v-3.32c3.62 0 6.49-.605 8.56-1.773 1.18-.633 2.16-1.805 2.86-3.508.73-1.746 1.07-5.254 1.07-10.57v-76.836c0-9.711-.22-15.657-.67-17.903-.43-2.211-1.13-3.73-2.04-4.519-.92-.828-2.17-1.203-3.72-1.203-1.25 0-3.26.468-6.06 1.484l-1.25-3.258 24.46-10.375h4.12Zm97.3 0c2.5 0 4.63.918 6.4 2.723 1.73 1.832 2.62 4.047 2.62 6.64 0 2.594-.89 4.805-2.62 6.672-1.77 1.836-3.9 2.785-6.4 2.785-2.5 0-4.63-.949-6.43-2.785-1.76-1.867-2.68-4.078-2.68-6.672 0-2.593.88-4.808 2.65-6.64 1.73-1.805 3.9-2.723 6.46-2.723Zm7.4 44.379v68.231c0 5.316.37 8.824 1.13 10.601.73 1.766 1.83 3.067 3.29 3.949 1.46.856 4.15 1.301 8.01 1.301v3.32h-39.73v-3.32c4 0 6.67-.414 8.01-1.234 1.38-.793 2.48-2.121 3.27-3.989.82-1.835 1.21-5.378 1.21-10.628v-32.735c0-9.207-.26-15.156-.78-17.875-.43-1.992-1.1-3.351-1.98-4.113-.89-.789-2.11-1.168-3.66-1.168-1.68 0-3.69.473-6.07 1.391l-1.24-3.356 24.61-10.375h3.93Zm55.57 18c9.57-11.988 18.71-18 27.39-18 4.48 0 8.32 1.172 11.52 3.484 3.23 2.305 5.79 6.133 7.68 11.446 1.3 3.703 1.94 9.394 1.94 17.051v36.25c0 5.347.43 9.019 1.28 10.918.64 1.55 1.71 2.75 3.17 3.632 1.43.856 4.14 1.301 8.07 1.301v3.32h-40.45v-3.32h1.7c3.81 0 6.49-.633 7.98-1.84 1.53-1.199 2.59-2.968 3.17-5.312.25-.918.37-3.824.37-8.699V304.61c0-7.719-.98-13.317-2.9-16.832-1.94-3.477-5.2-5.219-9.78-5.219-7.06 0-14.13 4.02-21.14 12.055v44.758c0 5.726.3 9.269.97 10.628.83 1.805 1.99 3.133 3.45 3.957 1.46.821 4.42 1.266 8.86 1.266v3.32h-40.42v-3.32h1.8c4.14 0 6.97-1.109 8.43-3.289 1.43-2.219 2.16-6.394 2.16-12.562v-31.54c0-10.183-.2-16.378-.66-18.597-.43-2.246-1.13-3.762-2.05-4.555-.91-.789-2.16-1.199-3.71-1.199-1.65 0-3.66.473-5.97 1.391l-1.34-3.356 24.64-10.375h3.84v18Zm123.02 57.156c-8.38 6.743-13.65 10.629-15.81 11.676a23.179 23.179 0 0 1-10.24 2.344c-5.66 0-10.33-2.027-13.98-6.043-3.65-4.02-5.49-9.305-5.49-15.848 0-4.148.89-7.719 2.69-10.758 2.43-4.171 6.67-8.128 12.7-11.863 6.03-3.703 16.08-8.187 30.13-13.504v-3.351c0-8.446-1.28-14.27-3.87-17.434-2.58-3.133-6.37-4.711-11.3-4.711-3.75 0-6.73 1.043-8.93 3.16-2.25 2.09-3.38 4.496-3.38 7.215l.18 5.375c0 2.848-.7 5.031-2.1 6.582-1.4 1.551-3.23 2.313-5.48 2.313-2.23 0-4.02-.793-5.43-2.41-1.4-1.61-2.1-3.793-2.1-6.579 0-5.312 2.62-10.183 7.86-14.644 5.24-4.43 12.58-6.676 22.06-6.676 7.25 0 13.19 1.266 17.85 3.797 3.51 1.93 6.1 4.934 7.77 9.016 1.07 2.656 1.58 8.066 1.58 16.289v28.816c0 8.102.16 13.07.46 14.902.31 1.801.8 3.036 1.47 3.637.7.633 1.49.949 2.37.949.95 0 1.8-.222 2.5-.664 1.25-.793 3.66-3.07 7.22-6.769v5.183c-6.64 9.27-13.01 13.922-19.11 13.922-2.89 0-5.2-1.043-6.94-3.16-1.74-2.094-2.62-5.695-2.68-10.762Zm0-6.007v-32.356c-8.99 3.727-14.77 6.356-17.4 7.871-4.72 2.723-8.07 5.567-10.08 8.543-2.04 2.973-3.04 6.199-3.04 9.742 0 4.43 1.27 8.133 3.83 11.075 2.56 2.906 5.52 4.394 8.84 4.394 4.54 0 10.48-3.102 17.85-9.269" style="fill:#ffffff;fill-rule:nonzero" transform="matrix(.74064 0 0 .85464 -209.94 336.897)"/><path d="M4773.45 556.813c.25-6.543.51-13.09.77-19.629 19.83-5.48 7.26-49.715 27.36-57.059h6.66c2.1 7.848 8.26 18.102 10.74 26.438v17.269c7.05 32.258 2.3 46.172-3.93 73.805-30.67 3.793-27.9-22.426-41.6-40.824Zm80.86 226.902c-.23-37.082 29.71-29.484 56.53-37.687 12.04-3.676 33.45-13.989 41.62-22.77 4.23-4.551 5.81-12.035 10.2-16.484-1.56-2.43-2.58-7.309-3.93-10.207-5.82-3.098-13.89-9.238-18.84-10.992-7.86-2.793-16.32-.645-22.77-3.93-38.14 3.598-95.6 34.551-108.35 60.457l-.78 20.414c6.34 3.766 11.11 10.098 14.92 16.488-1.09 16.883-.6 36.7-19.63 37.688-5.82-3.821-8.75-6.063-14.14-10.992-6.37 5.066-9.03 6.015-18.84 3.929-5.18-9.925-29.34-66.75-26.69-75.375 2.9-8.39 17.29-10.965 23.55-14.136 15.15-7.68 26.21-25.692 39.25-36.114 6.87-5.48 15.56-3.695 24.35-7.851 20.65-9.77 35.6-33.016 52.6-50.254 18.56-18.797 45.9-21.801 61.24-43.176-.52-1.051-1.05-2.094-1.56-3.144h-.79c-11.62 10.601-46.23 34.539-69.09 18.058-7.53-5.418-7.44-19.383-12.57-27.476-3.21-5.067-10.94-7.024-11.78-14.137 1.31-3.664 2.63-7.328 3.93-10.992 15.33-.141 44.5 20.48 53.39 29.05 21.51-6.824 43.49-13.324 64.39-25.125 7.98-4.511 20.28 4.993 23.54 2.356 10.37 7.547 26.14 48.031 5.5 56.535-9.6 2.871-25.03 2.109-35.33 4.711-24.91 6.285-55.96 22.059-72.23 38.469.26.523.52 1.043.78 1.57h1.57c9.29 2.676 26.25-3.508 38.48 2.356 28.98 13.898 65.83 25.574 65.16 71.449-5.68 2.172-8.95 7.695-14.92 10.207-15.08 6.347-30.44 5.379-42.39 13.347v4.711c3.15 4.168 6.36 8.489 6.28 18.84-4.76 3.215-3.66 9.512-7.07 14.133-11.64 15.801-28.09 28.559-32.98 47.109 2.89 3.141 5.76 6.282 8.64 9.422 21.55 8.129 116.38-43.242 102.86 13.348-1.91 7.988-7.1 11.625-9.43 18.059-11.48.152-16.58-2.028-24.33-3.926-13.45-3.293-56.13 12-63.61 17.269 2.27 14.516 3.92 28.176 3.94 47.114-3.8 1.953-4.59 6.527-7.86 8.636-7.07 4.559-14.87 4.461-22.77 7.848-4.65 1.996-13.71 8.691-20.41 10.996-45.24 15.543-91.03-25.695-101.28-55.746.26-.266.52-.527.79-.789 12.8.14 31.24 14.765 43.96 21.203 6.02.258 12.04.52 18.05.785 33.86 0 55.06-13.711 69.89-34.547-.26-2.617-.53-5.234-.79-7.855-1.83-1.043-3.66-2.09-5.5-3.141-18.59-7.832-50.62 10.199-65.95 12.567-16.21 2.503-53.31 1.753-65.95-6.286-3.22-2.043-5.7-7.574-7.85-8.632v-10.207c3.4-2.622 6.8-5.235 10.2-7.852h67.53c6.72-1.988 15.04-8.844 21.2-10.992 9.7-3.387 19.7-2.274 28.26-3.926 1.31-1.57 2.61-3.141 3.93-4.711-.54-6.16-6.21-13.609-3.14-22.766 5.55-16.582 12.38-27.628 20.41-43.972-1.89-2.516-3.88-4.133-7.07-3.141-13.93 1.008-25.18 10.156-46.32 10.207Zm-424.76 14.918c-.32-4.699-2.75-2.781 0-4.711 2.9-16.75 31.8-26.316 49.46-14.918 23.45 15.145 65.38 44.887 61.24 85.582-17.4 8.223-17.76 26.223-44.75 25.121-2.16-5.734-10.45-11.3-14.13-16.484l-4.71-19.629c-6.98-16.805-31.39-53.605-47.11-54.961Zm-140.54-102.851c.78-2.098 1.57-4.188 2.35-6.286 12.13 1.25 25.15 4.301 36.91 7.856 14.14 4.277 61.28-13.703 64.38-19.633 7.9-13.703 5.92-94.824 0-107.558-5.41-11.61-14.02-15.29-14.13-33.766 11.62-4.785 11.3-6.535 30.62-6.281 21.3 14.941 21.99 48.328 21.98 84.011 0 12.157-3.56 49.52-1.57 51.036 9.88 2.91 45.41-11.372 51.82-15.704 1.11-11.976-3.42-17.183-11.78-23.558.27-3.922.53-7.848.79-11.774 1.57.262 3.14.524 4.71.789 6.8 3.661 12.48 11.649 19.62 14.125 19.26 6.696 38.76 2.493 57.32 7.852 1.15 3.332 1.82 2.48 3.14 5.5v14.133c-4.37 1.965-5.46 7.828-9.42 10.203-5.31 3.195-20.73 1.641-27.48 3.93-18.34 6.214-88.45 34.261-101.29 47.89-7.84 8.34-3.64 23.66-7.84 36.121-11.56 34.223-35.3 107.422-82.44 88.719-3.41-.262-6.81-.527-10.21-.785-6.65-3.879-12.23-11.172-18.85-14.918.27-3.141.53-6.285.79-9.418 5.41-2.297 12.12-11.902 15.7-13.348 12.1-4.871 24.02-3 33.76-7.855 12.65-6.301 38.35-50.356 33.77-64.383-19.72-3.359-44.13.152-65.95 0-5.68-8.289-15.45-13.902-21.21-21.98-3.14-4.411-2.85-10.223-5.49-14.918Zm-265.38-162.528v-10.988c1.31-1.051 2.62-2.094 3.93-3.145 30.7 3.387 89.59 7.426 88.71 48.684-12.51 19.981-17.66 35.43-49.45 25.121-2.44-5.207-5.41-12.461-7.86-17.273-4.45-1.047-8.9-2.09-13.35-3.145.43-13.988-14.32-36.094-21.98-39.254Zm-136.62 261.453c6.9 2.934 16.1 2.891 21.99-.785 5.52-3.441 10.87-.347 14.92-4.711 8.83-9.535.16-37.336-9.42-41.609h-7.07l-19.63 45.535c-.26.527-.52 1.051-.79 1.57Zm-86.36 79.305c.55-12.66 6.92-24.098 9.42-36.121 1.63-7.859-2.71-18.797-2.35-25.906 19.34-3.391 45.61-48.399 62.02-62.028 6.64-5.515 17.72-13.878 25.91-16.492 3.4.528 6.8 1.051 10.21 1.571 12.34 2.554 23.18-1.692 29.84-4.711.25-4.711.35-10.09-1.57-12.559-.69-1.566-4.59-7.996-5.5-6.281-6.6.269-11.75 6.797-17.27 10.207h-11.78c-22.87 0-38.05-21.949-32.98-46.324 20.61 6.285 55.15 6.121 72.24-6.286 3.91-30.101 7.06-73.296 18.05-97.355 4.11-8.992-5.45-31.754.79-48.676h12.56c2.36 3.399 4.71 6.801 7.06 10.203 2.1 5.321 12.77 62.981 11 68.309-3.19 9.558-14.57 43.617-10.21 52.601.52 1.051 1.05 2.098 1.57 3.145 16.11.148 34.63-10.137 40.05-23.559 4.04-10.031-4.89-13.957-3.14-19.625h3.92c8.86 5.11 42.84 9.871 55.74 11.774v15.707c-1.83 1.043-3.66 2.094-5.49 3.14-.79-1.046-1.57-2.097-2.36-3.14-22.13 7.644-71.81 30.246-76.94 47.105-5.48-.246-12.53-.504-15.71 1.571-16.07 9.519-3.53 33.574-9.41 54.175-1.76 6.141-4.59 14.844-3.14 22.774 2.87.258 5.75.519 8.63.781 10.59-19.711 39.24-27.957 60.46-10.988 17.6 14.074 4.02 28.086 10.99 48.676 4.08 12.066 16.99 18.566 21.98 34.543.27.863 2.15 4.25 3.14 2.359 13.49 37.715-40.22 37.594-60.45 36.113-2.44-4.711-8.29-9.836-10.21-14.91-8.35-22.043-7.83-51.598-28.26-61.246-33.53 24.148 5.07 75.922-11 116.984h-.78c-3.9-3.754-10.92-4.14-14.92-7.851-9.98-9.242-17.23-26.778-21.98-43.965-4.8-17.352 10.38-32.133 5.49-42.398-1.93-1.184-2.64-2.165-3.92-3.926-13.78-.699-35.38 4.976-40.05 16.488-2.84 7.012-.67 11.996-3.92 18.844-5.79 12.176-27.31 46.094-38.47 51.82-9.42 3.008-19.84-2.707-25.91-7.851 4.21-13.215-5.9-25.325-13.35-26.692Zm-270.09-232.406c2.15 1.754 1.5 1.836 5.49 2.355 9.95-4.39 34.82-9.554 40.05-18.843v-10.204c-5.14-10.996-18.31-21.007-27.48-28.269h-1.57c-6.2 11.715-16.23 38.559-16.49 54.961Zm-127.97 177.441c2.61 8.895 5.23 17.797 7.85 26.696 12.35 22.437 54.86 35.66 84.01 18.843 3.89-12.082-31.34-62.386-41.62-70.664h29.83c6.83 4.098 49.08 18.125 51.83 16.485 8.36-6.895 10.12-64.821 3.14-69.086-3.04-1.801-6.22-1.438-10.21-.789-4.2 8.343-11.88 22.379-19.63 29.054h-3.92c-6.39-9.843-12.71-19.039-18.06-31.41-5.18-11.976 2.71-31.742-1.57-41.609-32.18-4.328-31.51 19.652-44.76 36.113-18.78 23.359-37.19 45.926-36.89 86.367Zm-151.54 12.563v-15.703c8.98-4.778 14.22-15.071 21.99-21.2-2.61-6.929-4.04-14.589-3.15-23.55 6.45-.071 27.95 4.746 41.62 0 12.47-4.336 65.27-22.411 70.66-31.411 6.26-10.457-.19-40.589 4.71-51.035 3.22-6.871 18-27.703 13.35-36.898-12.94-16.274-64.62 17.09-64.39-24.34 2.14-.426 1.63-.496 3.93-2.355 7.58-.086 15.19 1.41 20.42 3.921 13.06-5.656 51.06-19.273 58.88-32.187 11.87-19.594 5.91-43.281 24.34-58.887 14.2-1.457 25.89 1.473 37.69 7.067-7.66 24.652-26.9 35.742-37.69 58.101-7.61 15.758-8.89 46.313-11.78 61.242v15.7c-1.79-.055-6.59 19.582-7.06 23.558.78.785 1.56 1.571 2.35 2.356 1.31-.266 2.62-.528 3.93-.785h1.57c3.28-2.602 8.21-7.325 9.42-11.778v-8.64c2.3-3.997 7.43-7.586 9.42-11.774 15.79.43 35.84-3.891 40.83-12.558 5.23-11.157.34-34.172 4.71-43.184 4.53-9.352 11.17-31.266 14.13-41.617 6.12-21.371-18.08-40.496-4.71-51.032 9.76-10.82 30.4 4.18 35.33 9.422 10.45 11.102-1.13 23.817 3.93 38.465 4.14 12.008 28 21.324 38.47 26.699l36.12 4.711c.79 1.047 1.57 2.098 2.36 3.141-.27 2.879-.53 5.762-.79 8.633-8.6 15.492-34.07 25.32-45.54 33.765-8.59 6.325-13.83 18.997-22.77 24.34-11.91 7.117-25.79 4.301-32.98 15.699l-.78 7.856c-4.8-.805-3.64 8.172-3.14 10.992 10.37 4.453 46.16 10.879 51.03 18.84 10.16 16.602 8.98 52.105 3.93 75.375-1.53 7.02-4.93 14.117-3.14 24.34 42.05 13.5 103.03 48.023 49.46 92.644-42.02.172-42.15-24.011-73.02-35.332-6.42-2.355-27.84 7.664-31.4 9.426-4.71.258-9.42.524-14.14.785-19.29 6.364-43.54 10.926-62.8 6.282-6.11-13.333-16.84-26.969-26.7-36.118h-.78c-.79.785-1.58 1.567-2.36 2.356.18 19.191 16.83 43.906 6.28 62.027-3.01-1.469-8.64-.359-12.56-2.355-10.69-5.446-14.21-17.465-20.42-27.481-1.56-5.238-3.13-10.469-4.71-15.707-7.06-6.281-14.13-12.558-21.19-18.84-4.89-5.836-2.9-19.402-8.64-24.343-7.7-6.61-50.71 22.468-71.45 13.355-11.16-4.91-17.19-14.023-22.77-21.988Zm-241.04-241.821c2.36-1.57 4.71-3.144 7.07-4.71-.26-4.352-.55-4.055-2.36-6.286h-.79c-.52.266-1.04.524-1.56.789-1.26 3.922-.39 6.793-2.36 10.207Zm-6.28 3.922c1.05.785 2.09 1.571 3.14 2.36.79-.528 1.57-1.051 2.35-1.575v-3.921c-.78-.262-1.56-.528-2.35-.786-.52.258-1.05.524-1.57.786-.52 1.046-1.05 2.089-1.57 3.136Zm-162.53 3.145c-.15-16.422.3-30.676 6.29-43.184-.53-5.758-1.05-11.519-1.57-17.273 4.91-.574 21.98-4.711 21.98-4.711 11.44 20.125 9.89 44 25.91 60.457V615.7c-4.08 1.757-8.28 8.015-11.78 10.988-25.49.449-33.8-14.266-40.83-29.832Zm-40.04 177.441v-32.191c18.74-2.875 28.13-19.68 36.9-32.977 11.16-16.89 41.4-38.511 62.03-51.035 6.09-3.691 45.48-23.652 42.4-25.121 7.69-3.816 40.39-18.223 41.61-26.699l-.78-1.567c-4.96-1.367-31.44-11.796-35.34-14.918-4.13-3.316-7.53-11.019-10.99-12.562v-3.93c21.8 6.258 68.35-2.867 79.3-10.988 6.38-4.73 14.47-11.387 23.55-14.137 11.03-3.332 49.89 17.821 55.75 22.774l-.78 11.777c-4.91 2.223-11.26 7.742-15.71 10.988h-6.28c-12.8 4.129-51.93 14.418-61.24 24.344.53 2.356 1.05 4.711 1.57 7.063l14.13 7.066c4.45.266 8.9.523 13.35.789 17.06 9.094 68.4 76.617 32.19 103.637-3.6 2.687-33.82 12.59-30.62 14.133-14.8 5.664-30.83-6.047-37.68 7.062-.27 7.594-.53 15.184-.79 22.77-5.66 11.199-20.21 24.629-29.05 33.765-.37 5.258-.69 7.153 3.14 8.637 1.98 4.25 9.3 5.336 14.92 5.496 3.47-4.285 5.27-5.785 7.06-12.566 27.64-.243 40.87 10.047 63.6 14.914 2.56 5.613 10.33 21.644 8.64 25.914-3.29 3.867-6.39 9.277-10.99 11.781-22.87 6.164-32.25-17.199-50.25-14.137-1.87-2.324-13.16 8.559-14.14 11.782-1.57 5.175 2.16 10.691 3.14 13.343v15.703c3.38 20.161-5.08 35.45-19.62 42.399-18.07 8.637-65.87-5.031-76.95-10.988.23-2.864-20.51-14.09-25.91-14.918.26-.528.53-1.051.79-1.575 22.41-4.523 62.29-9.398 78.51-21.203 3.58-2.593 23.31-14.703 14.14-20.406-9.32-3.852-34.56-.797-42.4 3.137-9.19 4.613-48.45-6.348-50.25-7.848-4.03-3.371-6.1-6.547-7.85-10.996 1.13-2.273 1.24-2.363 1.57-3.922 25.26.168 61.82-4.137 85.58-8.641l4.71-6.281v-3.144c-4.03-3.172-5.17-5.059-10.99-7.059-.11-10.519-.94-21.719 3.92-29.84 4.83-8.051 19.32-26.66 17.27-36.898-1.16-2.59-2.28-4.125-4.71-5.496-21.44-8.567-45.02 35.543-57.31 22.769 1.17-13.695 3.55-30.148 11.77-39.261 13.48-14.93 49.11-14.262 62.03 0 14.84.367 20.97-6.016 29.83-10.989 10.85-6.082 25.88-10.215 32.2-20.414.71-1.156.62-4.59 2.35-2.355 15.06-26.93-24.83-52.387-39.26-56.532-26.51-7.617-58.56 24.016-67.52 36.118-18.17 24.55-52.07 41.461-72.23 66.738-8.51 10.672-6.59 25.59-11.78 40.039-2.95 8.23-8.53 17.824-12.56 25.129-16.33 2.25-33.67-7.852-40.04-19.629-3.67-6.789.59-13.824-3.93-18.844Zm-209.63-58.886c2.46-.215 6.02-1.629 7.85-4.711 1.6-3.688.03-5.176-2.36-7.067-.78.524-1.56 1.043-2.35 1.571-1.05 3.402-2.1 6.804-3.14 10.207Zm-84.8-39.254c2.88 3.554 4.72 4.714 9.43 2.351.41-6.039 1.98-5.242 3.13-10.207-.78-1.043-1.56-2.094-2.35-3.137-2.36 1.043-4.71 2.094-7.06 3.137-1.32 3.906-2.38 2.973-3.15 7.856Zm-29.83 90.289c12.65 6.047 32.61-9.153 39.26-15.703-.79-3.403-1.58-6.805-2.36-10.211-1.57-1.301-3.14-2.614-4.71-3.922-8.28 5.582-26.5 17.371-32.19 25.125v4.711Zm-76.95-91.078c2.07 1.011 2.75 1.347 6.29 1.574 9.35-3.969 11.86-9.735 18.05-16.488l-.78-7.856-9.42.785c-6.79 3.965-13.48 12.141-14.14 21.985Zm-18.06 69.093c3.23 1.125 2.54 1.399 5.5 0 4.27-6.66 44.59-39.757 34.55-47.894-29.04-12.391-40.88 22.793-40.05 47.894ZM2345 711.485c1.83 1.57 3.66 3.144 5.49 4.715h10.21c2.38-2.067 3.17-3.172 3.92-7.071-2.09-1.308-4.19-2.617-6.28-3.925-.23 1.417-11.69 2.929-13.34 3.925v2.356Zm-33.77 94.215c11.07-2.68 59.37-32.629 36.12-46.321h-5.49c-5.2 19.012-24.42 27.067-30.63 46.321Zm-66.73 48.679c.26-14.39.52-28.789.79-43.179 10.73-2.786 66.52-76.793 75.37-90.293-1.94-1.164-2.65-1.422-6.28-1.571-5.21 3.422-54.31 20.047-63.6 11.778a302.02 302.02 0 0 0-2.36-1.571c-.25-34.433 27.04-50.625 46.33-64.379 14.19-10.128 22.7-22.289 34.55-36.125 12.01-14.043 43.49-36.039 51.02-54.957 3.44-8.625 4.03-21.628 3.93-32.976 18.85-5.723 33.39-1.555 45.54 7.851-12.43 46.45-89.71 99.852-124.84 132.688-8.41 7.875-18.02 11.914-25.12 21.203.52.785 1.04 1.57 1.57 2.356 12.61.304 30.73-5.911 40.82-10.208 13.88-1.57 27.75-3.144 41.62-4.71 11.45-6.883 9.56-16.547 16.48-28.266 9.24-15.617 16.18-32.836 32.2-43.965h21.19c2.45 4.508 7.3 6.465 10.22 10.207 6.87 8.817 10.97 20.309 17.27 29.047 7.52-5.262 24.97-22.266 18.05-35.328-3.58-6.777-11.98-11.387-7.06-20.418.98-7.977 20.7-16.859 29.83-16.484 1.07 9.781 10.08 21.199 17.27 25.125 16.4 7 11.73-13.622 14.92-24.344 6.72-22.571-6.96-74.09 23.56-73.801 1.74 3.645 15.81 13.898 19.62 18.062h1.57c4.9 10.438 8.75 15.618 14.93 24.336 6.35 8.981 13.24 29.614 15.7 41.614 2.22 10.859-9.45 16.961-4.71 29.047 6.35 16.203 25.03 25.836 32.97 40.828 4.66 8.785 2.76 19.918 8.64 25.125 11.44 10.129 24.83 13.836 35.33 25.914v8.629c-5.1 2.234-10.53 7.39-15.7 10.211-6.97 3.793-17.32 2.847-21.98 3.925-17.74 4.09-39.93 10.282-49.47 22.766-6.95 9.09-6.65 52.277-10.99 66.738-.26 6.02-.52 12.039-.79 18.059-5.52 10.004-8.25 26.262-10.98 36.898v9.426c-9.63 18.719-14.9 37.109-24.35 53.391-.52 6.804-1.04 13.609-1.57 20.418-.78-.266-1.57-.528-2.35-.789-2.84-6.02-10.08-9.618-13.35-14.918-5.61-9.075-7.25-19.758-11-29.051V906.2c-4.97-20.118-.34-61.325-3.92-89.504-2.05-.68-2.74.316-1.57-1.571-24.16 5.27-44.49 10.52-65.16 19.629-11.26.262-22.51.52-33.77.782-12.21-10.575-10.06-43.957-4.71-60.454 10.64-3.769 27.77-17.293 32.19-27.48.26-2.879.53-5.758.79-8.637 13.13-19.027 33.92-34.558 23.56-66.738l-1.58-.781c-35.2 24.437-28.55 47.758-51.03 79.297-15.26 21.41-27.18 21.293-38.48 51.82-10.04 27.133 13.39 66.875 13.35 87.933-3.63 1.54-5.14 4.633-7.85 7.067h-7.85c-7.55-11.75-14.87-21.324-21.98-35.328-4.83-9.52-1.75-21.774-6.28-30.625-1.84.265-3.67.523-5.5.789-15.37 24.113-47.45 39.332-87.94 39.254-1.46-3.336-4.95-3.723-6.27-6.282-.27-3.664-.53-7.324-.79-10.992ZM1943 740.532c4.22 4.226 5.65 12.761 9.43 17.273 1.04-.258 2.09-.516 3.13-.781 1.27-6.426 9.82-22.559 2.36-28.266-.79-1.047-1.57-2.094-2.36-3.144-4.34-.106-6.97.363-9.42 1.578-.6 6.64-2.73 5.992-3.14 13.34Zm-51.82-18.84c.26 1.57.53 3.144.79 4.711h1.57c.78.261 1.57.523 2.35.789 1.57-1.836 3.15-3.668 4.72-5.5.18-4.133.73-5.473-.79-8.637-.52-.785-1.05-1.57-1.57-2.355-.79.523-1.57 1.046-2.36 1.57l-4.71 9.422Zm-53.39 18.058c1.57.782 3.14 1.571 4.71 2.356 8.22-2.41 12.05-8.207 18.06-12.563v-7.062h-1.57c-1.31-.266-2.61-.527-3.92-.789-5.51 6.937-12.2 9.847-17.28 18.058Zm-48.68 118.559c2.31 2.18 22.34 15.039 24.34 15.703 10.71 3.531 68.72-6.5 72.24-10.207-2.4-3.191-3.62-6.109-4.71-10.996h1.57c13.67-5.977 31.38 31.617 51.82-6.281 13.64 4.34 37.58 24.902 54.17 16.488 32.99-16.73 40.04-68.547 40.04-124.051 0-18.086 3.01-44.176-3.13-57.32v-21.191c-.03-13.571-1.55-42.375-7.07-53.391-.27-7.332-.53-14.656-.79-21.984-4.62-18.782-8.41-38.34-14.91-53.391-79.48-11.215-131.84 13.711-166.46 62.023-6.34 8.856-32.77 42.364-23.55 60.457 19.49-.726 45.25-31.324 59.67-40.043.79-.472 13.35-3.14 13.35-3.14 64.74-6.356 24.86 46.023 24.34 74.59 8.83 6.246 34.56 29.808 48.68 21.984 1.56-1.832 3.14-3.668 4.71-5.496 19.04.34 62.65 31.949 40.83 55.742-7.43 8.106-21.45 12.57-30.63 18.848-12.46 8.519-24.93 22.484-37.69 32.191-.85.649-6.91 2.242-3.92 3.926-13.17 7.25-31.11 12.894-45.54 21.984-9.45 5.957-28.56-1.133-36.11.782-4.59-8.567-19.36-24.77-11-41.614 3.77-6.965 14.89-15.773 21.2-20.414-.26-6.351-1.52-7.039-7.06-6.277-9.31 10.808-35.03-15.293-36.91-20.414v-21.981c7.41-4.347 11.61-10.16 19.63-14.922 18.57-11.019 54.37-14.71 44.76-47.894l-4.72-.789c-11.84 11.308-57.53 7.703-67.52 23.558-6.64 5.508.22 24.856-5.49 34.547-5.81-.492-3.3 13.813-7.07 20.414-12 20.973 1.89 65.848-3.14 89.504-2.11 9.957-3.56 22.266-3.93 29.055Zm-47.1 7.062c.12-34.371 12.62-67.585 19.63-97.355v-21.199c0-36.227-16.07-70.754-11-102.852 10.52-66.547 70.56-102.519 128.77-120.914 22.14-7 91.37-28.847 120.13-11.777 3.99 2.371 14.37 1.043 19.62 4.711 53.54 37.39 40.11 159.738 40.83 244.965.35 41.504 8.4 102.593-11.78 127.191-5.26 6.41-65.27 47.77-82.44 38.477-19.28-10.438-32.06-35.5-56.53-36.907-9.05-.519-18.97 7.528-25.12 10.993-4.6 2.593-61.62 10.679-71.45 7.851-11.79-3.394-15.84-11.766-23.56-18.844h-2.35c-6.9 6.203-11.1 15.075-25.12 14.918-2.54-5.293-8.42-9.847-11-14.918-4.26-8.394-4.37-15.992-8.63-24.34Zm-286.58-186.863c2.94 7.891 3.08 13.645 6.28 19.629 15.86-8.785 75.26-47.039 76.94-63.598h-1.56c-9.98-4.253-26.47.266-34.55 3.141h-19.63c-23.11 5.141-27.89 16.137-27.48 40.828Zm-127.98 43.184c10.52 10.066 11.9 18.027 11.78 37.687 4.01 1.758 2.77 1.84 4.71 4.711 6.69.563 13.09.602 18.85-.785 1.64-4.887 9.23-13.285 10.98-18.844 4.43-13.945 6.23-49.379-3.13-57.312-.53-.789-1.05-1.574-1.58-2.36-15.77.04-36.71 17.915-40.83 29.84-.25 2.356-.52 4.707-.78 7.063Zm-70.66-77.727c13.8.766 20.74 10.149 27.48 18.055h13.34c6.02-4.977 12.05-9.945 18.06-14.918 12.18-7.027 30.47-9.609 43.19-18.063 9.69-6.437 18.55-.585 25.12-12.558 7.92-18.852-5.96-37.02.79-60.453 3.38-11.766 5.93-19.567 7.85-32.977.21-1.48-2.06-30.078 1.57-27.48l1.56-2.356c25.79-.738 61.35 38.809 82.45 51.821 1.35 21.984-6.92 40.984-3.15 60.453 25.47 12.273 61.1-2.125 88.73-7.063 10.2.524 20.41 1.043 30.62 1.567 4.8 2.515 9.78 10.148 14.92 10.211v7.066c-11.8 8.391-19.59 21.023-29.05 31.402-8.44 9.254-31.82 20.621-45.54 29.051-10.15 6.234-25.37 10.398-25.91 25.91l5.49 4.711c19.34 8.918 46.9-1.308 55.75 18.848 1.77 4.015 5.31 7.918.78 12.558-11.69 18.563-43.28 4.27-60.45 15.704-14.45 9.617-28.26 22.363-40.04 32.187-10.79 8.992-24.71 3.289-32.19 15.703-8.61 14.281-.8 41.004-3.93 57.32l-3.93 10.989c-22.62 3.496-17.3 50.027-33.76 65.168-5.09-29.078-22.28-54.364-27.48-79.301-2.28-10.953 4.15-25.086-4.71-32.188-4.89-2.394-14.87-.968-20.41-1.57-7.38-15.848-12.27-37.207-29.83-43.187-7.52-2.555-10.97 2.996-22.77 3.14-2.14-4.828-4.55-15.222-8.64-21.199-4.94-7.207-16.57-9.848-21.99-16.488v-2.356c-4.67-10.765-.09-19.031-2.35-26.687-1.23-4.184-7.63-8.067-8.64-14.137 9.55-11.023 7.25-33.281 7.07-58.883" style="fill:#ffffff;fill-rule:nonzero" transform="matrix(.74064 0 0 .85464 -209.94 -374.94)"/><path d="M842.77 859.426c-48.848 35.488-110.532 40.558-162.438 18.797-51.906 21.773-113.605 16.707-162.461-18.785-48.851-35.497-72.734-92.594-68.078-148.68-36.746-42.645-50.988-102.887-32.328-160.317 18.66-57.425 65.586-97.785 120.363-110.691 29.203-48.125 82.094-80.285 142.477-80.285 60.383 0 113.269 32.156 142.472 80.269 54.793 12.899 101.723 53.258 120.379 110.692 18.66 57.426 4.422 117.66-32.312 160.297 4.664 56.097-19.219 113.207-68.074 148.703Zm-162.461-450.36c125.222 0 226.773 101.555 226.773 226.774 0 125.226-101.551 226.777-226.773 226.777-125.223 0-226.774-101.551-226.774-226.777 0-125.219 101.551-226.774 226.774-226.774" style="fill:#ffffff" transform="matrix(.74064 0 0 .85464 -209.94 -204.25)"/><path d="M544.055 682.731h-8.575v-32.332c-3.14 2.934-6.824 5.105-11.078 6.5v-7.781c2.231-.731 4.668-2.118 7.297-4.16 2.625-2.051 4.426-4.438 5.395-7.165h6.961v44.938Zm16.476-10.348 8.305-.918c.203 1.688.742 2.938 1.59 3.754.855.809 1.984 1.215 3.39 1.215 1.77 0 3.274-.812 4.512-2.437 1.246-1.625 2.039-5 2.387-10.133-2.16 2.508-4.856 3.758-8.09 3.758-3.52 0-6.559-1.364-9.113-4.079-2.555-2.714-3.836-6.246-3.836-10.601 0-4.543 1.355-8.203 4.054-10.984 2.688-2.77 6.125-4.165 10.293-4.165 4.543 0 8.262 1.758 11.18 5.27 2.902 3.512 4.367 9.281 4.367 17.316 0 8.192-1.519 14.086-4.554 17.711-3.036 3.618-6.981 5.43-11.848 5.43-3.5 0-6.324-.93-8.48-2.793-2.157-1.859-3.54-4.644-4.157-8.344Zm19.422-18.746c0-2.773-.637-4.918-1.91-6.437-1.27-1.532-2.75-2.289-4.414-2.289-1.586 0-2.906.621-3.953 1.871-1.047 1.25-1.571 3.308-1.571 6.16 0 2.887.575 5.012 1.708 6.355 1.136 1.352 2.566 2.032 4.273 2.032 1.648 0 3.047-.649 4.168-1.95 1.133-1.304 1.699-3.218 1.699-5.742Zm18.77 17.574 8.543-.871c.234 1.926.968 3.457 2.168 4.582 1.199 1.137 2.582 1.703 4.144 1.703 1.789 0 3.317-.734 4.551-2.179 1.242-1.457 1.863-3.66 1.863-6.582 0-2.742-.609-4.805-1.847-6.184-1.231-1.371-2.836-2.058-4.805-2.058-2.461 0-4.668 1.089-6.629 3.269l-6.957-1.012 4.398-23.285h22.68v8.02h-16.18l-1.347 7.609c1.918-.961 3.867-1.437 5.871-1.437 3.801 0 7.027 1.382 9.664 4.144 2.644 2.77 3.969 6.367 3.969 10.785 0 3.68-1.059 6.973-3.196 9.856-2.918 3.953-6.953 5.918-12.121 5.918-4.133 0-7.496-1.102-10.105-3.324-2.602-2.219-4.164-5.2-4.664-8.954Zm45.468-12.621c-2.218-.937-3.832-2.23-4.832-3.867-1.011-1.637-1.511-3.437-1.511-5.387 0-3.332 1.156-6.093 3.492-8.273 2.332-2.176 5.644-3.27 9.937-3.27 4.25 0 7.555 1.094 9.899 3.27 2.355 2.18 3.535 4.941 3.535 8.273 0 2.075-.547 3.918-1.629 5.543-1.074 1.614-2.594 2.856-4.543 3.711 2.481.989 4.367 2.446 5.656 4.364 1.293 1.906 1.942 4.113 1.942 6.617 0 4.137-1.313 7.488-3.949 10.07-2.637 2.586-6.137 3.879-10.516 3.879-4.07 0-7.457-1.062-10.168-3.195-3.195-2.535-4.793-5.992-4.793-10.391 0-2.418.609-4.637 1.805-6.668 1.199-2.019 3.093-3.586 5.675-4.676Zm1.77-8.64c0 1.711.484 3.043 1.449 3.992.969.957 2.254 1.437 3.867 1.437 1.625 0 2.926-.48 3.911-1.445.964-.973 1.457-2.305 1.457-4.016 0-1.617-.481-2.894-1.45-3.867-.968-.965-2.238-1.445-3.832-1.445-1.648 0-2.957.488-3.941 1.457-.965.98-1.461 2.273-1.461 3.887Zm-.789 19.164c0 2.363.605 4.203 1.812 5.531 1.207 1.32 2.723 1.98 4.536 1.98 1.769 0 3.238-.636 4.398-1.91 1.152-1.273 1.738-3.105 1.738-5.511 0-2.09-.593-3.782-1.773-5.051-1.18-1.274-2.68-1.91-4.488-1.91-2.098 0-3.657.73-4.68 2.168-1.031 1.449-1.543 3.011-1.543 4.703" style="fill:#ffffff;fill-rule:nonzero" transform="matrix(.74064 0 0 .85464 -209.94 -257.111)"/><path d="M680.309 226.77c219.136 0 396.851 177.716 396.851 396.849 0 219.141-177.715 396.851-396.851 396.851-219.141 0-396.852-177.71-396.852-396.851 0-219.133 177.711-396.849 396.852-396.849Zm0 14.17c211.312 0 382.681 171.37 382.681 382.679 0 211.312-171.369 382.681-382.681 382.681-211.309 0-382.68-171.369-382.68-382.681 0-211.309 171.371-382.679 382.68-382.679" style="fill:#ffffff" transform="matrix(.74064 0 0 .85464 -209.94 -193.806)"/><path d="M963.117 409.335c.465.231.809.629 1.039 1.192.235.562.235 1.07 0 1.527-.449.891-1.09 1.359-1.929 1.414-.836.055-1.657.113-2.45.164-.586.168-1.043.57-1.371 1.211-.886 1.742-.125 3.231 2.289 4.457l5.825 2.969 2.828-5.547 1.465.746-2.829 5.547 15.496 7.898c1.954.993 3.665.055 5.129-2.816l.641.324-6.098 11.965-.636-.328c1.273-2.504.937-4.258-1.02-5.254L966 426.913l-1.914 3.758-1.469-.746 1.918-3.766-1.422-.722c-2.933-1.492-4.851-3.434-5.754-5.813-.839-2.281-.656-4.609.559-6.996.715-1.402 1.637-2.414 2.762-3.035.984-.5 1.797-.586 2.437-.258Zm-589.347-90.5c-.227-3.215-1.422-4.75-3.575-4.597l-18.375 1.285c-4.379.304-7.718-.961-10.011-3.789-1.77-2.215-2.778-5.102-3.028-8.664-.261-3.723.403-6.727 1.996-9.012 1.942-2.742 5.172-4.274 9.688-4.59l17.91-1.254c2.156-.148 3.129-1.73 2.918-4.738l.973-.07 1 14.269-.973.067c-.211-3.012-1.348-4.446-3.398-4.301l-18.582 1.297c-3.04.214-5.29.961-6.754 2.226-1.813 1.539-2.606 3.985-2.375 7.332.453 6.434 3.984 9.418 10.586 8.961l18.113-1.269c2.262-.157 3.273-1.848 3.051-5.059l.972-.066.832 11.902-.968.07Zm-28.481 30.567-1.887-10.692.715-.125c.375 2.129 1.641 3 3.801 2.617l12.77-2.25c1.25-.222 2.128-.75 2.644-1.585.516-.844.672-1.801.484-2.887-.328-1.852-1.632-3.543-3.925-5.055l-13.625 2.406c-2.164.383-3.051 1.637-2.68 3.762l-.711.129-1.887-10.695.715-.125c.375 2.129 1.645 3.004 3.805 2.625l13.73-2.426c1.078-.188 1.731-.527 1.957-1.024.231-.492.2-1.355-.09-2.597l.711-.121 3.704 7.078-4.153.73c3.176 1.844 5.024 4.219 5.535 7.125.688 3.883-1.539 6.274-6.672 7.184l-11.554 2.039c-2.16.375-3.055 1.633-2.68 3.762l-.707.125Zm34.941 5.414c-.734.156-1.398.035-1.972-.371-.574-.403-.945-.969-1.102-1.715-.156-.735-.047-1.387.321-1.957.375-.571.925-.93 1.664-1.086.738-.16 1.406-.059 2.007.308.61.36.989.911 1.145 1.649.156.734.039 1.414-.359 2.019-.399.618-.965.996-1.704 1.153Zm-30.894 10.562-2.531-11.926.703-.148c.547 2.547 1.887 3.598 4.035 3.141l13.484-2.868c1.746-.371 2.485-1.195 2.215-2.468-.105-.508-.379-1.11-.808-1.828l.754-.161 4.437 7.528-19.172 4.074c-2.152.457-2.949 1.957-2.41 4.504l-.707.152Zm29.051 20.914c-.289-1.054-1.586-1.738-3.907-2.043l-19.832-2.461c-.734-.086-1.148-.238-1.242-.464-.097-.223.176-.594.817-1.125l15.875-12.508c1.812-1.446 2.543-2.832 2.183-4.153l.703-.187 2.61 9.738-.699.188c-.399-1.493-1.063-2.114-1.997-1.864-.406.075-.953.352-1.652.836l-11.137 8.453 12.914 1.278c1.086.097 1.954.082 2.59-.059 1.008-.23 1.309-1.074.922-2.531l.695-.188 1.848 6.907-.691.183Zm-4.235 27.051c-2.445.242-4.824-.289-7.14-1.582-2.317-1.301-3.887-3.019-4.707-5.164-.973-2.527-.848-5.023.379-7.48 1.308-2.704 3.711-4.731 7.199-6.071 3.269-1.25 6.324-1.379 9.168-.375 2.851 1 4.82 2.926 5.91 5.778 1 2.589.949 4.98-.137 7.164-1.094 2.179-2.875 3.742-5.336 4.691l-5.718-14.887c-3.008 1.153-5.231 2.86-6.657 5.117-1.433 2.258-1.734 4.461-.914 6.602.594 1.535 1.727 2.809 3.395 3.824 1.5.93 3.031 1.426 4.594 1.485l-.036.898Zm4.989-8.523c3.554-1.739 4.816-3.985 3.754-6.735-1.192-3.101-3.719-4.183-7.586-3.258l3.832 9.993Zm15.418 21.574c-1.5.668-2.532.375-3.09-.879-.297-.656-.281-1.375.027-2.148.309-.778.375-1.368.192-1.782-.235-.527-.942-.965-2.129-1.301-1.188-.332-2.235-.3-3.141.106l-11.027 4.91c-2.016.899-2.489 2.531-1.434 4.918l-.652.289-4.942-11.09.66-.297c1.047 2.352 2.575 3.079 4.582 2.18l12.067-5.367c1.828-.813 2.523-1.856 2.109-3.133-.226-.504-.605-1.008-1.136-1.523l.707-.317 5.933 6.371-4.273 1.903c3.687.613 5.933 1.824 6.746 3.644.305.684.347 1.367.121 2.051a2.331 2.331 0 0 1-1.32 1.465Zm-3.813 23.504c-1.859 1.031-3.711 1.16-5.555.375-1.66-.727-2.988-1.989-3.988-3.789-.363-.66-.683-1.633-.957-2.907-.277-1.281-.566-2.187-.867-2.726-.371-.664-.762-.875-1.184-.641l-.343-.633 6.972-3.867.422.77c-3.734 3.164-4.781 6.219-3.156 9.16.566 1.019 1.297 1.73 2.187 2.144 1.02.489 2.039.454 3.063-.113 1.433-.793 2.183-2.699 2.23-5.707l.086-4.109c.078-3.254 1.211-5.492 3.403-6.707 1.437-.797 3.027-.946 4.761-.434 1.735.512 3.102 1.68 4.118 3.508.5.902.824 1.883.98 2.934.152 1.05.32 1.742.504 2.07.199.363.523.496.984.394l.321.59-6.118 3.391-.398-.719c3.156-2.933 4.074-5.594 2.742-7.992a4.319 4.319 0 0 0-2.133-1.945c-.922-.383-1.816-.336-2.683.144-1.293.715-1.989 2.574-2.094 5.57l-.145 4.2c-.121 3.593-1.171 5.941-3.152 7.039Zm29.664-2.305c-.64.399-1.301.508-1.98.324-.68-.175-1.215-.59-1.614-1.23-.406-.641-.527-1.289-.375-1.953.149-.66.543-1.188 1.188-1.594.641-.398 1.305-.531 1.996-.398.691.14 1.234.523 1.633 1.167.402.637.523 1.313.359 2.02-.164.707-.566 1.266-1.207 1.664Zm-25.418 20.492-6.457-10.34.61-.382c1.382 2.211 3.007 2.734 4.863 1.574l11.695-7.309c1.512-.945 1.922-1.972 1.231-3.078-.274-.433-.735-.914-1.383-1.437l.652-.411 6.75 5.551-16.629 10.387c-1.859 1.164-2.101 2.852-.719 5.066l-.613.379Zm13.199 12.856c-1.796-.168-3.171-.434-4.144-.805-1.219-.484-2.223-1.293-3.012-2.414-1.515-2.164-.765-4.297 2.238-6.402l13.446-9.414-1.563-2.235c-.082-.109-.031-.25.149-.418.191-.136.351-.179.465-.136 1.73.796 4.835 1.281 9.312 1.453l1.098.047-5.602 3.929 2.918 4.172-1.348.941-2.925-4.171-12.262 8.589c-2.328 1.629-3.066 3.063-2.199 4.301.574.817 1.742 1.375 3.508 1.692l-.079.871Zm31.25 9.695c-.316-.406-.976-.582-1.992-.539a9.049 9.049 0 0 0-2.273.348l-22.856 7.019c-5.402 1.656-9.101 1.215-11.086-1.328-1.539-1.973-1.461-3.625.243-4.953.484-.383 1.07-.445 1.746-.188a3.247 3.247 0 0 1 1.41 1.051c.234.293.512.988.84 2.082.152.535.382.989.679 1.364 1.012 1.3 4.051.925 9.114-1.114l9.039-17.769c.64-1.239.984-2.055 1.035-2.438.094-.597-.074-1.34-.5-2.219l.566-.449 6.528 8.352-.571.445c-1.246-1.594-2.234-2.109-2.965-1.539-.375.301-.722.742-1.046 1.332l-6.817 13.059 13.016-4.375c1.172-.395 1.879-.684 2.121-.875.242-.188.344-.539.289-1.043-.047-.508-.309-1.071-.797-1.692l.57-.445 4.278 5.473-.571.441Zm16.938 32.238c-2.582 2.426-5.465 3.684-8.668 3.789-3.195.106-5.945-1-8.242-3.312-2.149-2.168-3.164-4.809-3.051-7.91.121-3.114 1.344-5.871 3.68-8.289 2.406-2.493 5.07-3.852 8.004-4.075 3.101-.246 5.921.856 8.464 3.313 2.516 2.43 3.754 5.18 3.727 8.246-.031 3.07-1.34 5.816-3.914 8.238Zm-4.836-1.808c2.383-2.465 3.957-4.86 4.715-7.172.945-2.856.469-5.203-1.434-7.039-1.336-1.285-2.929-1.68-4.789-1.188-1.715.442-3.41 1.539-5.101 3.293-2.289 2.367-3.848 4.797-4.68 7.285-.969 2.875-.598 5.141 1.101 6.782 1.504 1.457 3.333 1.836 5.477 1.144 1.664-.543 3.238-1.578 4.711-3.105Zm35.77 1.672c-.336.386-.801.629-1.407.714-.601.09-1.097-.031-1.48-.367-.754-.656-1.055-1.39-.906-2.218.148-.821.293-1.629.429-2.418-.011-.61-.293-1.145-.84-1.622-1.476-1.281-3.101-.898-4.879 1.145l-4.285 4.93 4.692 4.086-1.078 1.242-4.692-4.078-11.414 13.121c-1.441 1.656-.937 3.539 1.492 5.656l-.472.543-10.133-8.809.476-.543c2.118 1.84 3.899 1.938 5.34.282l11.407-13.125-3.184-2.766 1.078-1.242 3.184 2.773 1.05-1.211c2.157-2.484 4.504-3.875 7.036-4.175 2.41-.266 4.628.476 6.648 2.234 1.191 1.031 1.953 2.176 2.281 3.418.242 1.078.133 1.883-.343 2.43Zm13.398 37.613c-1.895 2.609-4.289 3.98-7.188 4.121-2.558.137-5.07-.691-7.539-2.488-1.027-.746-2.086-1.86-3.164-3.348-1.086-1.488-1.836-2.379-2.25-2.68-.691-.504-1.437-.347-2.246.465l-.918-.664 5.258-9.855.914.664c-1.82 6.179-.734 10.722 3.266 13.629a6.5 6.5 0 0 0 4.101 1.261c1.735-.054 3.125-.8 4.176-2.246 1.692-2.328 1.715-5.367.067-9.109l-2.301-5.231c-1.922-4.359-1.883-7.914.113-10.664 1.57-2.168 3.523-3.402 5.859-3.73 2.325-.317 4.59.32 6.786 1.914a12.13 12.13 0 0 1 3.117 3.316c.836 1.301 1.472 2.118 1.918 2.442.609.441 1.386.308 2.328-.41l.875.636-5.528 9.532-1-.727c1.918-5.898 1.043-10.18-2.617-12.844-1.172-.847-2.41-1.207-3.73-1.086-1.317.125-2.426.813-3.336 2.059-.789 1.082-1.035 2.473-.746 4.172.215 1 .765 2.601 1.656 4.82l2.219 5.43c1.836 4.472 1.812 8.015-.09 10.621Zm21.809 14.652c-2.446 1.559-4.493 2.535-6.149 2.93-2.324.601-4.527.297-6.609-.906-2.344-1.352-3.805-3.387-4.379-6.094-.629-2.895-.043-5.887 1.738-8.973 1.781-3.093 4.164-5.125 7.141-6.093 2.98-.981 5.996-.579 9.058 1.187 1.782 1.023 3.063 2.355 3.836 3.996.782 1.637.844 3.02.192 4.149a2.162 2.162 0 0 1-1.375 1.046c-.61.164-1.2.082-1.766-.242-.59-.344-.953-.832-1.086-1.457-.129-.637-.058-1.183.215-1.664.516-.89.644-1.797.383-2.719-.258-.921-.848-1.652-1.77-2.179-2.164-1.25-4.347-1.227-6.531.093-1.598.977-2.914 2.372-3.965 4.188-1.351 2.344-1.871 4.758-1.558 7.234.312 2.477 1.418 4.266 3.32 5.36 2.437 1.406 5.394 1.218 8.883-.571l.422.715Zm23.679-15.859c-.351.668-.863 1.094-1.547 1.273-.679.184-1.351.098-2.019-.258-.664-.355-1.098-.855-1.293-1.503-.203-.653-.125-1.309.234-1.973.352-.672.86-1.117 1.524-1.344.672-.226 1.332-.164 2 .188.664.355 1.101.879 1.316 1.578.215.695.145 1.375-.215 2.039Zm-11.758 30.457-10.765-5.723.336-.64c2.301 1.23 3.965.867 5-1.071l6.468-12.172c.836-1.574.68-2.671-.468-3.281-.453-.246-1.094-.43-1.918-.558l.363-.68 8.613 1.437-9.195 17.309c-1.031 1.937-.402 3.52 1.902 4.742l-.336.637Zm26.137 2.016c-1.488 1.953-3.5 3.335-6.023 4.144-2.532.809-4.864.785-6.992-.074-2.512-1.016-4.247-2.809-5.208-5.383-1.085-2.801-.929-5.941.473-9.406 1.309-3.242 3.301-5.567 5.977-6.965 2.675-1.395 5.429-1.524 8.254-.379 2.578 1.039 4.289 2.703 5.144 4.988.852 2.289.781 4.653-.211 7.102l-14.785-5.973c-1.207 2.992-1.477 5.774-.797 8.363.676 2.586 2.078 4.305 4.211 5.165 1.524.621 3.231.66 5.109.125 1.704-.457 3.106-1.243 4.219-2.348l.629.641Zm-2.832-9.461c1.16-3.789.371-6.235-2.367-7.336-3.074-1.246-5.59-.137-7.555 3.324l9.922 4.012Zm27.461 26.89-10.266-3.535.239-.68c2.043.703 3.418.016 4.133-2.062l4.222-12.258c.414-1.195.375-2.223-.109-3.078-.485-.859-1.246-1.469-2.285-1.824-1.782-.614-3.891-.285-6.321.984l-4.507 13.082c-.715 2.074-.047 3.465 1.992 4.168l-.231.68-10.265-3.535.234-.68c2.047.703 3.422.019 4.137-2.059l4.539-13.183c.359-1.035.379-1.774.054-2.211-.316-.434-1.093-.828-2.312-1.176l.23-.684 7.989.196-1.371 3.984c3.152-1.887 6.121-2.351 8.91-1.391 3.73 1.282 4.742 4.391 3.051 9.321l-3.825 11.09c-.711 2.078-.043 3.468 1.996 4.172l-.234.679Zm25.281-2.113c-1.879 2.203-3.55 3.738-5.019 4.598-2.047 1.25-4.242 1.605-6.582 1.062-2.641-.609-4.633-2.121-5.973-4.547-1.449-2.582-1.766-5.613-.965-9.086.805-3.48 2.489-6.121 5.051-7.922 2.563-1.8 5.566-2.304 9.008-1.507 2.008.461 3.617 1.363 4.84 2.703 1.222 1.336 1.683 2.636 1.394 3.91a2.18 2.18 0 0 1-1.012 1.402c-.535.336-1.121.426-1.757.281-.664-.156-1.153-.511-1.465-1.074-.309-.57-.403-1.117-.278-1.652.231-1.004.09-1.902-.429-2.707-.516-.813-1.297-1.336-2.332-1.57-2.438-.563-4.508.101-6.215 1.992-1.238 1.406-2.094 3.125-2.57 5.164-.61 2.64-.395 5.097.629 7.379 1.019 2.277 2.597 3.664 4.734 4.156 2.746.629 5.523-.418 8.336-3.145l.605.563Zm25.297 4.453c-1.09 2.199-2.797 3.938-5.129 5.215-2.324 1.277-4.617 1.695-6.871 1.258-2.656-.516-4.707-1.95-6.137-4.285-1.601-2.547-2.046-5.661-1.332-9.329.668-3.429 2.18-6.089 4.536-7.976 2.355-1.879 5.035-2.531 8.035-1.949 2.722.535 4.722 1.836 5.996 3.922 1.273 2.082 1.656 4.417 1.148 7.007l-15.652-3.043c-.613 3.164-.344 5.95.812 8.364 1.157 2.406 2.864 3.824 5.122 4.269 1.617.317 3.296.028 5.039-.855 1.582-.782 2.812-1.813 3.695-3.11l.738.512Zm-4.586-8.754c.414-3.937-.824-6.183-3.719-6.746-3.257-.633-5.519.93-6.785 4.703l10.504 2.043Zm39.953 17.59c-.734.523-1.468 1.043-2.203 1.566-.879.543-1.703.778-2.492.711-2.082-.183-3.168-1.586-3.246-4.211a19.813 19.813 0 0 1-4.082 2.379c-1.504.664-2.68.953-3.539.883-1.504-.133-2.758-.754-3.758-1.851-1.008-1.102-1.449-2.356-1.328-3.758.266-3.008 2.16-5.219 5.691-6.629 2.395-.965 4.996-1.785 7.813-2.473l.16-1.89c.328-3.727-.637-5.692-2.887-5.887-2.566-.223-3.91.383-4.039 1.816a7.594 7.594 0 0 0 0 .93c.024.316.02.691-.019 1.137a2.551 2.551 0 0 1-.817 1.66c-.488.453-1.058.652-1.707.597-.687-.058-1.215-.296-1.59-.707a1.82 1.82 0 0 1-.496-1.437c.164-1.844 1.231-3.25 3.207-4.215 1.692-.816 3.539-1.133 5.559-.957 2.734.238 4.637.953 5.699 2.148 1.16 1.305 1.613 3.434 1.36 6.372l-.989 11.273c-.117 1.332.231 2.031 1.055 2.109.613.051 1.461-.234 2.555-.859l.093 1.293Zm-8.043-3.133.786-8.965c-2.747.688-4.645 1.317-5.692 1.875-1.84 1.012-2.844 2.407-2.996 4.184-.25 2.832.871 4.359 3.363 4.578 1.301.113 2.809-.441 4.539-1.672Zm35.715 4.473-10.851.383-.024-.723c2.164-.074 3.203-1.211 3.125-3.402l-.453-12.957c-.043-1.27-.445-2.219-1.207-2.84-.758-.629-1.687-.918-2.785-.879-1.887.062-3.734 1.121-5.551 3.176l.481 13.832c.082 2.191 1.199 3.25 3.359 3.175l.02.723-10.844.375-.028-.719c2.157-.074 3.204-1.211 3.125-3.406l-.484-13.93c-.043-1.097-.285-1.793-.746-2.086-.449-.292-1.316-.382-2.578-.269l-.031-.723 7.527-2.679.148 4.214c2.266-2.894 4.875-4.39 7.825-4.492 3.937-.136 6 2.395 6.183 7.61l.406 11.722c.079 2.196 1.2 3.25 3.36 3.18l.023.715Zm28.055-4.145c-2.465.942-4.973 2.145-7.535 3.602l-.321-3.688c-1.527 2.614-3.812 4.055-6.851 4.325-2.086.179-4.055-.497-5.91-2.028-2.305-1.941-3.625-4.84-3.965-8.679-.293-3.391.504-6.442 2.406-9.129 1.899-2.692 4.371-4.172 7.406-4.438 2.289-.195 4.063.371 5.317 1.703l-.723-8.246c-.098-1.164-.418-1.824-.945-1.988-.18-.051-1.035-.008-2.574.125l-.09-1.027c1.543-.473 4.039-1.457 7.492-2.926l2.602 29.73c.089 1.055.402 1.68.937 1.875.324.145 1.223.153 2.684.024l.07.765Zm-8.047-2.254-.961-10.972c-.152-1.754-.758-3.094-1.824-4.043-1.063-.946-2.313-1.356-3.746-1.231-2.153.188-3.742 1.348-4.758 3.481-.879 1.804-1.203 3.996-.977 6.578.266 3.008 1.063 5.457 2.395 7.305 1.379 1.996 3.078 2.902 5.094 2.726 1.332-.117 2.343-.445 3.035-.988.695-.551 1.273-1.496 1.742-2.856Zm45.238-29.402-1.203.277c-1.219-2.355-2.023-3.742-2.433-4.136-1.168-1.102-2.891-1.391-5.164-.871l-4.614 1.07 6.18 26.766c.516 2.238 2.414 2.98 5.687 2.226l.223.953-14.941 3.446-.219-.954c3.273-.754 4.656-2.254 4.133-4.488l-6.176-26.769-4.016.925c-2.597.598-4.207 1.645-4.816 3.118-.27.664-.391 2.273-.367 4.835l-1.196.282-1.668-8.594 28.321-6.539 2.269 8.453Zm27.2 9.609c.156 2.454-.454 4.813-1.832 7.075-1.375 2.277-3.153 3.785-5.329 4.535-2.554.883-5.046.664-7.449-.649-2.664-1.406-4.605-3.875-5.82-7.406-1.137-3.308-1.156-6.367-.059-9.176 1.102-2.804 3.094-4.711 5.977-5.703 2.633-.906 5.015-.777 7.156.395 2.145 1.168 3.649 2.996 4.504 5.492l-15.078 5.191c1.047 3.051 2.68 5.328 4.883 6.836 2.207 1.508 4.394 1.883 6.57 1.137 1.559-.535 2.867-1.621 3.937-3.254.981-1.469 1.532-2.984 1.645-4.543l.895.07Zm-8.348-5.281c-1.606-3.621-3.805-4.949-6.594-3.988-3.14 1.078-4.312 3.57-3.523 7.469l10.117-3.481Zm31.238-3.226c-.281 2.886-.765 5.101-1.476 6.644-.965 2.203-2.555 3.75-4.782 4.649-2.511 1.015-5.011.914-7.496-.301-2.672-1.289-4.672-3.586-6.008-6.891-1.335-3.312-1.472-6.433-.406-9.383 1.071-2.949 3.238-5.082 6.512-6.402 1.906-.773 3.746-.961 5.512-.57 1.777.398 2.898 1.203 3.39 2.41a2.189 2.189 0 0 1-.019 1.726 2.24 2.24 0 0 1-1.278 1.239c-.636.261-1.246.246-1.82-.043-.574-.285-.969-.68-1.176-1.188-.383-.953-1.019-1.613-1.906-1.972-.891-.368-1.824-.352-2.809.05-2.324.938-3.64 2.672-3.949 5.2-.207 1.859.074 3.761.86 5.699 1.019 2.515 2.597 4.406 4.742 5.687 2.148 1.278 4.23 1.508 6.269.68 2.606-1.043 4.278-3.5 5.02-7.348l.82.114Zm29.328-5.582-9.586 5.097-.336-.64c1.911-1.016 2.348-2.489 1.317-4.426l-5.653-10.633c-1.5-2.816-3.386-3.617-5.656-2.414-1.781.953-2.976 2.734-3.57 5.34l6.473 12.176c1.031 1.941 2.5 2.398 4.41 1.386l.34.637-9.586 5.094-.34-.637c1.906-1.012 2.344-2.492 1.316-4.43l-11.929-22.441c-.567-1.059-1.102-1.59-1.606-1.59-.328-.023-1.121.301-2.394.977l-.434-.817c1.094-1.011 2.98-2.867 5.66-5.57l7.34 13.809c.758-3.547 2.301-5.942 4.633-7.184 3.785-2.008 6.898-.719 9.351 3.883l5.504 10.363c1.031 1.938 2.5 2.398 4.406 1.383l.34.637Zm24.785-14.145-9.402 5.43-.363-.629c1.875-1.078 2.262-2.57 1.16-4.473l-6.48-11.226c-.633-1.094-1.43-1.746-2.399-1.942-.965-.195-1.922-.019-2.871.528-1.633.945-2.77 2.75-3.41 5.414l6.922 11.984c1.093 1.902 2.578 2.316 4.453 1.23l.363.629-9.406 5.426-.36-.629c1.872-1.074 2.262-2.562 1.157-4.469l-6.965-12.074c-.551-.949-1.098-1.449-1.633-1.492-.547-.047-1.344.281-2.414.977l-.359-.625 5.386-5.899 2.11 3.649c.64-3.618 2.242-6.164 4.797-7.637 3.418-1.973 6.425-.703 9.035 3.812l5.863 10.161c1.098 1.898 2.582 2.308 4.453 1.226l.363.629Zm15.098-25.379c1.934 2.961 2.676 6.027 2.227 9.195-.45 3.168-2.016 5.684-4.696 7.54-2.504 1.746-5.281 2.281-8.32 1.632-3.039-.652-5.551-2.34-7.527-5.058-2.032-2.801-2.907-5.668-2.617-8.594.296-3.098 1.871-5.684 4.73-7.758 2.832-2.058 5.754-2.801 8.773-2.234 3.016.558 5.493 2.324 7.43 5.277Zm-2.621 4.449c-2.02-2.777-4.098-4.738-6.25-5.89-2.645-1.426-5.035-1.364-7.172.191-1.504 1.09-2.168 2.586-2.008 4.508.141 1.769.926 3.633 2.36 5.602 1.933 2.664 4.054 4.621 6.359 5.871 2.664 1.453 4.961 1.484 6.871.093 1.695-1.23 2.387-2.961 2.078-5.195-.238-1.73-.988-3.461-2.238-5.18Zm22.52-6.554-9.247 8.031-.468-.539c1.996-1.738 2.269-3.43.832-5.086l-16.844-19.375c-.609-.699-1.141-1.074-1.602-1.133-.457-.058-1.007.195-1.66.758-.336.293-.75.703-1.246 1.226l-.515-.582c1.003-1.414 2.582-3.832 4.742-7.253l20.422 23.488c1.437 1.66 3.144 1.629 5.113-.082l.473.547Zm12.605-26.703c2.332 2.66 3.492 5.593 3.484 8.793-.007 3.203-1.207 5.906-3.597 8.121-2.242 2.07-4.918 2.996-8.016 2.773-3.101-.227-5.82-1.551-8.156-3.965-2.406-2.492-3.668-5.203-3.785-8.144-.141-3.106 1.062-5.887 3.601-8.34 2.52-2.434 5.309-3.574 8.379-3.442 3.059.141 5.758 1.543 8.09 4.204Zm-1.973 4.769c-2.382-2.473-4.722-4.125-7.007-4.961-2.821-1.047-5.184-.652-7.079 1.184-1.336 1.285-1.785 2.867-1.359 4.742.379 1.73 1.422 3.469 3.113 5.219 2.289 2.371 4.657 4.011 7.114 4.929 2.843 1.067 5.117.778 6.82-.863 1.508-1.457 1.953-3.266 1.332-5.437-.477-1.684-1.461-3.289-2.934-4.813Zm13.536-30.488-2.743 3.265c1.282.231 2.571.883 3.86 1.969 1.836 1.539 2.82 3.379 2.945 5.528.125 2.14-.609 4.171-2.223 6.093a12.353 12.353 0 0 1-2.023 1.926c-.324 2.145-.106 3.543.66 4.18.813.683 2.586-.606 5.32-3.864 2.649-3.152 4.774-5.015 6.375-5.597 1.516-.52 3.125-.063 4.832 1.371 1.762 1.473 2.364 3.883 1.801 7.215-.547 3.164-1.898 6.019-4.039 8.574-1.758 2.102-3.715 3.367-5.867 3.793-1.746.379-3.051.199-3.922-.531-.734-.614-1.113-1.715-1.129-3.293a195.033 195.033 0 0 1-.125-4.407 4.798 4.798 0 0 1-2.035.778c-.734.101-1.285-.004-1.652-.313-.817-.683-1.297-1.781-1.457-3.308-.067-.77-.036-2.063.097-3.875-3.125 1.586-5.941 1.32-8.468-.793-1.758-1.481-2.711-3.371-2.852-5.684-.145-2.312.691-4.551 2.5-6.703.77-.918 1.961-1.836 3.574-2.742 1.613-.906 2.649-1.66 3.11-2.258l1.921-2.617 1.54 1.293Zm-.09 9.387c-1.575-1.325-3.258-2.172-5.043-2.551-2.035-.41-3.567.008-4.602 1.238-.863 1.027-1.14 2.105-.836 3.234.309 1.129 1.067 2.157 2.262 3.075 1.699 1.332 3.363 2.171 5.004 2.515 1.957.391 3.476-.062 4.555-1.347 1.656-1.969 1.207-4.024-1.34-6.164Zm16.832 7.074c-1.024-.86-2.332-.637-3.922.672-.797.629-2.121 2.05-3.973 4.25-1.437 1.714-2.832 3.113-4.195 4.207.258 2.414.848 4.004 1.765 4.773 1.891 1.59 4.461.453 7.7-3.41 1.984-2.367 3.164-4.574 3.547-6.629.336-1.781.023-3.07-.922-3.863Zm-1.067-39.828c-.32.406-.332 1.086-.043 2.058.215.781.516 1.485.887 2.125l12.336 20.481c2.914 4.843 3.379 8.535 1.395 11.074-1.54 1.976-3.161 2.297-4.868.965-.484-.375-.683-.93-.601-1.645.07-.597.297-1.14.679-1.625.231-.297.84-.742 1.817-1.32.48-.285.867-.609 1.16-.988 1.012-1.297-.082-4.157-3.285-8.575l-19.43-4.468c-1.359-.325-2.226-.461-2.613-.414-.606.05-1.281.39-2.035 1.023l-.571-.445 6.524-8.352.57.445c-1.246 1.594-1.504 2.672-.777 3.247.379.293.898.523 1.551.691l14.316 3.453-7.395-11.562c-.667-1.043-1.121-1.664-1.363-1.848-.242-.188-.605-.203-1.086-.035-.48.168-.965.566-1.449 1.183l-.562-.437 4.273-5.473.57.442Zm27.258-24.579c3.004 1.864 4.977 4.325 5.902 7.391.93 3.063.579 6.004-1.062 8.82-1.543 2.637-3.824 4.301-6.856 4.989-3.035.699-6.019.226-8.957-1.403-3.031-1.679-5.031-3.91-6.003-6.679-1.043-2.93-.704-5.942 1.003-9.032 1.696-3.058 4.032-4.968 7.004-5.734 2.973-.766 5.965-.215 8.969 1.648Zm-.492 5.141c-3.004-1.668-5.719-2.562-8.152-2.695-3.004-.176-5.149.89-6.426 3.199-.899 1.625-.867 3.262.09 4.93.871 1.543 2.371 2.906 4.504 4.086 2.875 1.597 5.625 2.476 8.246 2.629 3.031.195 5.121-.747 6.265-2.817 1.016-1.828.91-3.691-.308-5.582-.957-1.473-2.36-2.723-4.219-3.75Zm32.801-62.5c2.6 5.082 2.93 10.164.97 15.258-1.89 4.93-5.025 8.262-9.404 10-4.187 1.625-8.633 1.531-13.34-.274-4.613-1.769-7.941-4.792-9.992-9.066-2.051-4.281-2.191-8.723-.422-13.332.727-1.891 1.762-3.707 3.11-5.453 1.347-1.738 2.066-2.723 2.156-2.945.363-.856 0-1.684-1.078-2.508l.406-1.059 11.023 3.738-.468 1.2c-2.911-.457-5.536-.047-7.875 1.218-2.344 1.266-4.024 3.243-5.063 5.938-1.379 3.582-1.043 6.926 1 10.023 1.942 2.879 5.059 5.141 9.356 6.793 4.195 1.61 8.027 1.903 11.504.887 3.476-1.016 5.877-3.254 7.207-6.711 1.12-2.914 1.46-5.762 1.02-8.535-.16-1.129-.64-2.695-1.46-4.695l1.35-.477Zm12.24-26.156-2.81 10.488-.7-.187c.56-2.086-.22-3.418-2.34-3.985l-11.629-3.113c-3.086-.824-4.957 0-5.617 2.488-.527 1.953-.039 4.035 1.457 6.25l13.329 3.574c2.12.563 3.45-.195 4.01-2.281l.7.184-2.81 10.488-.7-.191c.56-2.086-.22-3.41-2.34-3.981l-24.544-6.582c-1.16-.308-1.914-.277-2.262.086-.234.227-.543 1.031-.914 2.426l-.898-.242c.011-1.489-.063-4.141-.211-7.942l15.105 4.051c-2.078-2.976-2.777-5.734-2.094-8.289 1.11-4.141 4.18-5.535 9.219-4.184l11.329 3.036c2.12.566 3.46-.196 4.02-2.282l.7.188Zm-29.615-18.324c.746.132 1.312.496 1.695 1.086.379.586.504 1.253.371 2-.129.738-.469 1.308-1.027 1.695-.555.391-1.203.523-1.949.387-.743-.129-1.325-.473-1.747-1.043-.421-.559-.574-1.211-.437-1.953.129-.747.492-1.321 1.09-1.743.597-.414 1.262-.558 2.004-.429Zm32.605 1.781-2.12 12.008-.71-.129c.45-2.567-.4-4.039-2.56-4.418l-13.582-2.399c-1.758-.308-2.747.18-2.977 1.461-.086.512-.066 1.172.066 2l-.757-.136-1.297-8.637 19.307 3.402c2.15.379 3.46-.715 3.92-3.277l.71.125Zm4.25-28.371-1.32 10.773-.71-.086c.26-2.148-.7-3.355-2.88-3.625l-12.86-1.57c-1.26-.16-2.26.09-3 .738-.74.657-1.17 1.528-1.3 2.621-.235 1.868.52 3.864 2.26 5.977l13.74 1.684c2.18.273 3.4-.672 3.67-2.813l.71.086-1.32 10.777-.72-.09c.26-2.144-.69-3.351-2.87-3.617l-13.84-1.699c-1.09-.133-1.818 0-2.177.402-.359.411-.578 1.246-.668 2.516l-.719-.094-1.468-7.847 4.192.511c-2.505-2.691-3.579-5.5-3.22-8.429.477-3.914 3.31-5.551 8.48-4.918l11.65 1.429c2.17.266 3.4-.672 3.66-2.812l.71.086Zm-1.23-25.629c.57.699 1.14 1.394 1.71 2.086.61.836.9 1.644.89 2.437-.05 2.09-1.37 3.27-3.98 3.528a19.979 19.979 0 0 1 2.66 3.906c.77 1.453 1.14 2.613 1.13 3.469-.03 1.507-.56 2.804-1.59 3.882-1.03 1.079-2.25 1.61-3.66 1.586-3.01-.058-5.35-1.796-7-5.218-1.13-2.317-2.13-4.86-3.01-7.618l-1.9-.031c-3.74-.062-5.63 1.031-5.67 3.297-.05 2.57.65 3.871 2.09 3.895.31.004.62-.016.93-.063a7.98 7.98 0 0 1 1.14-.058c.65.015 1.22.25 1.7.699.5.457.74 1.008.72 1.664-.01.683-.21 1.23-.59 1.633-.39.406-.86.605-1.4.593-1.85-.035-3.33-1-4.43-2.906-.932-1.629-1.377-3.461-1.346-5.48.051-2.746.633-4.688 1.746-5.832 1.23-1.25 3.32-1.844 6.26-1.797l11.32.199c1.33.023 2.01-.379 2.02-1.203.02-.617-.33-1.442-1.03-2.485l1.29-.183Zm-2.56 8.242-9-.164c.88 2.695 1.63 4.543 2.27 5.547 1.13 1.769 2.59 2.672 4.37 2.699 2.85.051 4.29-1.176 4.34-3.68.03-1.3-.64-2.769-1.98-4.402" style="fill:#ffffff;fill-rule:nonzero" transform="matrix(.74064 0 0 .85464 -209.94 97.854)"/><path d="M809.598 786.965c54.965-126.344 5.617-206.082-101.481-248.387 64.196 25.965 50.606 105.496 25.02 145.77-25.574 40.277-69.145 72.898-137.867 103.836 73.609-28.77 119.585-66.731 141.019-102.258 21.43-35.519 25.344-66.387 19.531-101.035 33.274 71.023 5.215 133.539-60.074 195.613 75.692-65.164 100.246-135.355 57.438-207.984 63.652 69.832 46.457 144.543 2.593 211.105 53.969-74.769 63.289-153.871-8.297-221.843 86.071 52.671 98.286 124.671 62.118 225.183" style="fill:#ffffff" transform="matrix(.74064 0 0 .85464 -209.94 -261.768)"/><path d="M701.303 795.131c-21.47-4.649-36.367-10.43-55.329-21.969 15.167 23.776 38.647 48.953 55.329 64.281-14.289-18.029-17.714-27.961-17.42-34.168.303-6.208 6.2-7.62 17.42-8.144" style="fill:#ffffff" transform="matrix(.39016 .72644 .62955 -.4502 -473.798 52.576)"/><path d="M691.754 547.004c.441-10.441 1.473-17.332 16.383-20.91 14.906-3.578 31.324-3.137 58.726 1.285 27.399 4.414 49.379 6.364 76.438 3.793-9.18-5.968-11.949-8.824-15.586-15.699-23.66.496-39.336-1.148-59.051-7.18-19.719-6.023-42.957-12.238-58.066-10.656-15.114 1.59-25.02 10.004-30.289 28.453-5.274-18.449-15.176-26.863-30.289-28.453-15.114-1.582-38.344 4.633-58.067 10.656-19.715 6.032-35.39 7.676-59.051 7.18-3.632 6.875-6.41 9.731-15.589 15.699 27.062 2.571 49.042.621 76.441-3.793 27.398-4.422 43.816-4.863 58.726-1.285 14.911 3.578 15.942 10.469 16.383 20.91h22.891" style="fill:#ffffff" transform="matrix(.74064 0 0 .85464 -209.94 -19.305)"/><path d="M680.309 411.027c117.39 0 212.597 95.199 212.597 212.598 0 117.394-95.207 212.594-212.597 212.594-117.395 0-212.598-95.2-212.598-212.594 0-117.399 95.203-212.598 212.598-212.598Zm0 7.086c113.48 0 205.511 92.028 205.511 205.512s-92.031 205.508-205.511 205.508c-113.485 0-205.508-92.024-205.508-205.508 0-113.484 92.023-205.512 205.508-205.512" style="fill:#ffffff" transform="matrix(.74064 0 0 .85464 -209.94 -193.811)"/><path d="M923.188 838.477c4.457 6.52 1.73 20.32-4.508 24.461-1.559-.965-8.383-.226-9.18-3.937-.68-4.438 3.254-6.563 4.945-10.707 1.61-3.946.864-8.567 2.094-11.922.063.082.125.172.188.25 2.531-.813 4.171.644 6.461 1.855Zm30.726-40.23c1.32 1.75 2.918 3.582 3.055 5.16.312 3.664-9.051 10.664-14.008 14.312-1.641 1.215-5.066 1.875-5.602 3.778 2.7 2.058 5.465 5.16 8.731 6.222.437-.199.879-.394 1.32-.593.684-1.411.574-2.797 1.274-4.075l1.765-1.308c.219.293.434.586.653.883-.957 3.937 1.488 8.175 4.308 11.851.692.899.383 1.778 1.246 2.988-.441.598-.41.403-.164 1.098l-2.519 1.871c-.899-.254-2.024.168-2.891-.199a2047.78 2047.78 0 0 0-4.219-4.102c-6.789-3.589-13.621-9.097-20.793-10.355-5.976 4.289-18.789 7.723-24.195 5.848-4.266-1.477-9.453-9.688-4.937-12.957.046-.032.085-.063.128-.09 1.321.472 2.883.457 4.231.961 1.73 1.453 3.461 2.902 5.195 4.355 2.555 1.399 11.043.039 13.879-1.32l.477-.938c-3.539-7.754-9.547-6.621-6.614-16.007.207-.665.614-3.477 2.524-3.442.496.07.762.445 1.187 1.07.782 2.411 1.95 5.739 3.989 7.211.726.891 1.457 1.782 2.183 2.68 1.66 1.129 4.707 3.813 6.61 3.887 2.5.094 16.113-10.278 17.511-13.008.817-1.602.86-5.168 3.575-5.981l2.101.2" style="fill:#ffffff;fill-rule:nonzero" transform="matrix(.74064 0 0 .85464 -209.94 -547.407)"/><path d="M1017.66 722.372c2.51 4.711-1.78 9.058 1.29 13.218.83.165.58.731 1.35 1.395 2.76 2.402 10.23 5.047 10.27 10.563.02 3.042-5.51 8.164-9.11 6.523-.82-.602-6.07-6.848-6.14-7.504-3.84-2.859-8.21-4.762-12.16-6.937-.07.097-.13.195-.2.293.06.089.11.183.16.273.58 1.836 3.22 4.258 3.44 6.898.58 6.938 1.64 14.352-5.86 18.418-.884-.547-2.247-.765-3.177-1.425-1.957-1.391-5.257-6.532-7.304-5.75-2.723 5.593-12.074 1.742-16.828 1.925-.786.911-1.325 1.743-1.239 2.891.786 1.355 1.571 2.715 2.356 4.074 1.566 1.211 8.613 6.453 8.957 9.871.41 3.977-4.563 6.16-7.863 4.903-2.157-3.996-3.02-8.016-7.754-10.93-1.504-.926-1.368-2.129-2.891-2.496-2.82 1.605-4.477 3.301-7.84 5.254-9.191-4.305-16.535-10.973-13.652-22.391.57-2.269 1.226-5.109 3.453-6.883 1.633 3.055.508 6.817.805 9.864.582 1.117 1.164 2.23 1.746 3.343 3.597 6.231 7.957 7.411 12.886 8.508l.875-.687c.157-.453.321-.907.477-1.364-.785-1.363-1.57-2.714-2.352-4.078-.91-.976-3.242-2.941-4.589-3.875-2.707-1.859-8.274-12.894-7.332-15.519.355-.996 1.382-1.594 2.402-2.114.672.215 1.34.434 2.012.653 3.3 2.242 3.75 8.34 6.961 11.746 1.898 2.016 6.117 3.828 7.312 7.016.59.214 1.113.304 1.715.46 3.453-3.699 5.648-3.101 9.66-3.039.793.008 3.375-.41 3.461-.914.481-2.101-3.926-4.16-5.105-5.386-.52-.907-1.043-1.817-1.567-2.719 5.789-3.981 8.055 1.715 12.231 5.805 1.742 1.703 4.414 2.71 6.343 3.765 1.789.981 5.231 2.957 6.891.008.73-1.281-.08-2.492-.17-4.066-.48-8.325-10.955-13.856-16.853-16.008-2.231-.813-6.696-3.25-9.247.629.012.824-1.054 3.507-1.054 3.507-2.367 2.446-5.043 1.981-7.094 2.465-.742-.902-1.125-.8-1.879-1.996.375-.746.508-2.347.512-3.199-1.152-.512-1.856-1.07-2.485-2.73.465-1.993 9.11-12.473 11.274-12.493 4.805 3.172 9.238 3.973 14.144 5.973l5.313 4.184c3.894 1.711 8.339 2.285 12.429 3.328 5.06 1.293 8.68 5.793 13.74 6.211.08-.168.17-.336.25-.508-.03-.043-.05-.09-.08-.137-3.37-1.129-11.15-4.953-10.11-10.293.56-2.898 4.76-4.344 4.03-7.765.71-.344 1.42-.696 2.12-1.043.4.183.62.273 1.07.285Zm5.93-16.102c.31.543.63 1.086.94 1.629-3.37 3.738-13.42 14.371-19.9 12.938-4.11-3.993 1.43-10.399 6.25-13.032 2.82 1.848 8.76-1.355 12.71-1.535" style="fill:#ffffff;fill-rule:nonzero" transform="matrix(.74064 0 0 .85464 -209.94 -400.874)"/><path d="M834.582 896.504c-1.863.52-8.457 4.512-8.437 7.09.043.023.085.051.136.074 6.789 4.297 10.965-.683 9.117-6.691-.273-.157-.543-.317-.816-.473Zm30.988-33.582c.657.438 1.305.879 1.957 1.313-.308 3.152-2.691 12.273-5.047 15.027-1.523 1.781-6.699 5.969-6.89 8.168.015.187.023.375.035.562 3.375 1.996 7.242 1.993 9.504-.132 1.285-1.204.269-2.469 1.453-3.145 1.641 1.324 8.262 6.387 8.398 7.746.086 1.078-1.132 2.266-1.574 2.719-6.652-3.184-12.14-1.5-18.453-.688-2.035.266-3.191-1.918-5.015-.722-2.704 1.765-6.743 9.632-8.29 11.523.149.274.297.535.446.805 4.586 1.824 8.844-4.332 12.711 4.984 1.16 2.793-1.723 4.778-2.825 8.332-.796 2.594.969 6.324.348 9.446-1.328 6.675-11.031 4.371-13.859.152-1.938-3.758 3.496-11.535 1.121-16.387-.457-.14-.918-.289-1.379-.433-6.707 4.058-7.297 13.785-12.035 18.968l-.352-.023c-3.949-3.324-2.344-9.582-.031-14.699 1.066-2.36 3.527-2.532 3.68-5.121-1.567-1.524-5.024-2.95-7.094-2.465-1.914.445-3.055 2.765-4.805 3.929-3.211 2.137-8.004 4.637-11.765 4.993-1.422-.93-2.454-2.442-3.157-3.637 1.602-3.051 1.004-3.77.539-6.574 2.395-2.391 5.563-5.375 6.895-9.434 7.723-1.035 15.039-5.734 23.035-5.367 2.871.129 4.711 5.305 7.891 3.285.285-.5.574-1 .859-1.496-.121-.731-.238-1.469-.359-2.199-1.664-.614-2.895.226-4.418-.196-6.223-1.734-6.004-8.566-2.574-12.179.046.027.089.05.132.078 1.879 3.379 7.864 6.273 11.93 6.344a27.347 27.347 0 0 0 4.184-4.11l3.511-5.769a487.972 487.972 0 0 1 6.254-5.813c.821-.746 3.11-6.238 4.203-7.902.274.039.555.082.836.117Zm11.735 6.051c4.066 3.133 8.324 5.316 10.66 9.781.285.547 1.844 4.578 1.555 4.523-1.688 7.141-9.102 6.305-12.567 1.989.66-1.418.899-2.672.156-3.719-.492-.402-.984-.809-1.476-1.211 2.043-4.051-1.688-8.391 1.672-11.363" style="fill:#ffffff;fill-rule:nonzero" transform="matrix(.74064 0 0 .85464 -209.94 -664.795)"/><path d="M628.453 917.265c-.308.29-.617.575-.926.864.141.129.278.258.414.386.297-.125.59-.25.883-.371.051-.23.106-.457.156-.683a4.672 4.672 0 0 0-.222-.27c-.098.024-.203.047-.305.074Zm.293-2.168c-.117.188-.23.379-.351.567.199.383.398.762.597 1.148.371-.246.738-.5 1.11-.746-.055-.258-.118-.508-.18-.765-.07-.09-.149-.18-.223-.27-.32.024-.636.043-.953.066Zm4.356-7.484c4.179-.773 8.984.91 11.886 1.856.063.707.535 1.714.09 2.398-2.027 5.219-11.98 6.285-14.789 11.09 2.383 2.344 4.547.644 7.633 1.574 4.562 1.379 14.879 11.606 10.289 18.207-1.219 1.754-4.195 2.961-5.723 4.426-2.031 1.945-6.277-.461-7.082 3.457.246 1.496.496 3 .746 4.5-1.004 3.062-3.492 4.976-3.949 8.516 1.031 1.035 2.235.878 3.797 1.035 1.184-1.035 1.086-1.672 1.367-3.067 3.461-.906 10.41-.89 13.059-.035 1.226.399 2.496 3.363 3.066 4.758-.558.727-.824 2.137-1.902 2.871-3.969 2.895-8.371-3.164-11.961.578-2.488 2.602 3.18 8.168 2.219 12.059-2.223 8.984-18.762 6.746-24.34 4.164l.199-.528c6.07-4.046 15.504-4.484 16.734-11.718-.277-.239-.207-.215-.566-.348-4.531-.633-8.137 3.633-12.527 3.617-1.633-.004-4.543.504-6.016-.183a690.61 690.61 0 0 0-2.34-1.703c.078-.344.16-.684.242-1.024 3.579-.769 16.645-5.133 17.102-6.805-.078-.304-.148-.609-.219-.914-1.312-1.164-1.523-.484-2.793-2.242.024-1.672-.492-2.988-.097-4.492.656-2.527 2.281-5.133 1.734-8.316-.297-.258-.367-.332-.754-.465-3.32-1.157-7.383 6.148-10.297 7.601l-.07-.304c-1.102-1.27-.711-3.254-.512-4.879.77-6.235 7.11-9.59 12.945-6.621 3.454-.731 4.844-2.774 6.676-4.489 1.477-1.382 3.629-2.8 4.395-4.593 2.441-5.711-6.274-9.293-9.86-9.598-5.902-.5-9.671 6.605-11.492 9.344-2.121 3.179-4.179 7.132-6.668 9.968-2.011 2.301-3.902 4.079-4.992 6.836-1.625 4.118-1.078 9.938-2.07 14.364-7.934 2.07-11.25-4.825-11.864-11.219-.031-.309 3.793-4.219 4.524-5.43 1.375-2.801 2.75-5.601 4.133-8.402 1.965-3.035 5.343-5.981 7.793-8.625 3.625-3.906 11.554-8.598 13.859-12.969-.012-.051-.027-.105-.035-.152-3.715-.594-8.863-1.094-11.262-3.942.024-.113.051-.226.078-.339 9.356-.372 15.098-5.786 19.614-9.817Zm-35.852 5.281c.77.114.934.336 1.477.782.347 2.152 5.074 9.367 6.964 9.636.286 3.641 1.735 4.524-1 7.336-7.757.61-9.484-3.16-9.836-11.535-.097-2.305-1.242-3.34-.82-4.808 1.074-.473 2.145-.942 3.215-1.411" style="fill:#ffffff;fill-rule:nonzero" transform="matrix(.74064 0 0 .85464 -209.94 -749.678)"/><path d="M740.789 938.832c-4.121 1.289-5.844 4.317-8.617 7.43-3.723 4.183-12.129 11.484-8.356 19.734 1.817 3.981 7.454 8.805 13.754 7.008 1.551-.437 1.836.117 2.875-.937-1.722-3.348-3.574-12.188-6.281-14.309l.203-.281c1.758.304 3.512.605 5.262.914 1.98 1.148 8.687 5.633 10.445 4.992 1.184-4.285 4.305-10.063 2.203-13.637-.523-.039-1.047-.074-1.574-.113-1.84 1.019-2.859 4.129-4.676 4.926-1.738.761-2.359-2.442-2.582-3.473-.906-4.133.243-6.594.254-11.59-.972-.222-1.941-.441-2.91-.664Zm18.543-18.765c-1.719 2.687-4.668 7.203-4.816 10.312.097.07.191.145.285.211 2.367.391 8.023-1.207 9.637-2.309.562-3.339-2.551-6.129-4.176-8.054a60.24 60.24 0 0 0-.93-.16Zm-5.352-14.149c4.93.813 7.493 3.067 6.997 7.426-.168 1.43-1.645 2.898-.805 4.637 1.844 3.808 8.148 6.269 13.316 7.722-.023.739-.043 1.485-.066 2.223-2.629 3.566-8.602 4.23-12.27 6.473-1.179.722-1.871 2.484-3.222 2.949-3.84 1.312-7.492-.094-8.676 5.023 2.152 3.063 8.586 2.938 9.84 6.649.609 1.789-.028 9.156-1.207 11.574-.641 1.301-2.785 4.805-2.289 6.769.933 2.411 4.531 2.942 6.523 4.637 2.899 2.469 5.051 4.731 5.59 9.094.5 4.043-4.988 7.953-9.512 6.156-2.742-1.09-4-4.566-5.836-6.746-.718-.848-2.34-1.391-3.316-2.008-1.106-.699-5.969.653-6.508.785l-2.809-.328c-3.906.512-8.316.797-12.589-.906-.243-2.73-2.121-6.078-3.895-7.844-.211-.035-.414-.074-.617-.105-.125.082-.246.168-.367.25-.399 2.457 1.386 11.734-.852 12.277-1.254.309-3.16-1.676-3.601-2.215-1.618-1.976-1.235-5.238-2.036-7.523-1.328-1.875-2.644-3.75-3.964-5.621-.516-1.508.476-3.16-.547-4.235-1.282-1.351-10.418 2.094-14.215.243-2.203-1.079-5.926-5.914-2.965-8.637l4.121-2.633c.985-1.301-.058-3.973.91-5.258 1.766.129 4.7 1.59 7.399 1.438 2.828-.157 14.371-2.399 15.687-4.129.953-3.34 1.903-6.68 2.852-10.02 1.144-2.199 3.211-2.984 3.758-6.035-.411-.328-.442-.465-.641-.906-4.008-.703-6.5-1.121-9.742-1.692-.496-1-1.41-1.699-1.922-2.722.137-1.031.086-1.231.48-1.828.371-.508-.054-.196.543-.383 1.942-.172 2.219 1.613 4.071 1.34 2.488-.367 10.527-2.328 12.125-3.793 3.429-3.137 3.195-9.293 7.375-11.305 2.863.461 4.398 1.301 6.515 1.926.02.406-.258.473.512.723-1.574 4.609-6.293 5.96-8.781 9.312-3.024 4.07-3.739 10.047-5.699 15.418-.368 1.02-2.122 3.844-1.965 4.918 3.929 1.062 3.515-4.379 6.48-5.25 3.024-.25 6.789.797 8.5-1.231 1.867-2.222.836-5.488 2.219-8.218 1.562-3.094 3.715-6.746 4.762-10.008 1.168-3.645-3.2-4.887.339-8.383" style="fill:#ffffff;fill-rule:nonzero" transform="matrix(.74064 0 0 .85464 -209.94 -747.374)"/><path d="M365.531 758.059c.621 3.898 1.914 6.039 3.731 9.125 2.703.754 2.933-.668 4.511-1.063 1.43.321 2.86.649 4.286.981.382 0 .054.195.496-.028 1.242-.207 1.941-2.015 2.004-3.851-2.18-2.449-6.727-6.461-11.625-5.715-1.836.277-2.051-.789-3.403.551Zm-1.492-33.223c.91 8.242-6.418 12.949 5.172 15.852 1.656.406 2.723.226 3.812-.282a.933.933 0 0 0 .043-.152c-3.183-5.75-3.371-11.945-7.773-17.683-.512.066-.18-.047-.535.183-.238.695-.481 1.383-.719 2.082Zm-33.996 17.703c.937-3.191 12.023-12.425 14.535-13.008 4.008-.011 7.414 4.321 11.594 3.43 2.945-4.672 2.387-11.215 2.914-16.93.352-3.867 2.754-8.722 5.66-8.394 3.914 4.035 5.973 9.648 7.516 15.016.824 2.875.832 7.703 4.07 9.05.32-.183.645-.367.961-.55 2.418-1.028 3.328-7.325 4.887-9.743 1.047-.23 2.863-1.316 4.418-.113 2.597 2.438.48 5.957.14 9.785-.394 4.422 3.004 8.328 4.129 12.481.516 1.898-.285 3.179.215 5.258 1.039 4.285 9.449 2.96 12.777 5.695 1.289 1.066 1.125 2.976 2.137 4.148 1.82 2.114 5.149 1.821 7.438 3.778a463.08 463.08 0 0 0 2.613 2.976c-.016.051-.027.102-.039.153-4.719-1.141-10.445.714-14.535 1.468-2.61.477-6.2-1.89-8.922-1.25-.418 1.348-.832 2.696-1.25 4.051-3.356.574-7.867.356-9.844 3.375-1.109 1.699.406 3.074-.953 4.777-1.106.133-3.102.106-4.199.504-2.145.778-3.465 3.153-5.848 3.633-2.629.531-4.777-2.836-6.617-.148l-.914-.246c-.895-2.934-7.383-3.317-10.961-4.559 1.367-2.859 4.051-2.66 5.223-4.941 1.25-2.442-1.047-4.411-1.461-6.082-1.223-4.911-.696-10.75-2.336-14.922-1.743-.575-3.485-1.153-5.227-1.727a1857.91 1857.91 0 0 1-6.449-1.406c-1.356-.793-2.508-2.074-3.688-2.609-2.972-1.336-6.015-.657-7.914-2.61-.023-.113-.043-.226-.07-.34" style="fill:#ffffff;fill-rule:nonzero" transform="matrix(.74064 0 0 .85464 -209.94 -401.25)"/><path d="M437.684 831.652c.129.875.418 1.813 1.109 2.66 1.332.461 2.68 1.172 3.996 1.336.035-.039.07-.074.109-.113-.109-.629-.222-1.254-.332-1.887-1.5-1.73-1.867-2.675-3.66-2.992-.406.332-.816.66-1.222.996Zm-13.43 12.317c-.535 2.136-.766 3.117-.223 5.332.078-.075.153-.149.223-.227.262-.035.519-.074.777-.109.504-1.614.446-2.91.668-4.442-.226-.218-.445-.441-.668-.66l-.777.106Zm4.219-7.102c.144.664.297 1.332.445 2 .637.625.738.68 1.332.664.035-.183.07-.371.109-.555-.039-.406-.074-.812-.109-1.222-.602-.629-1.039-.93-1.559-1.106l-.218.219Zm-15.871-35.848c-2.407 3.071-4.809 6.141-7.215 9.211-3.848 7.079-3.356 15.246-1.551 22.422.383 1.528 2.086 7.129 4.105 7.883.184.031.368.07.555.109 2.602-3.554.609-20.128 9.207-19.648 4.363-1.445 6.809 8.125 8.77 10.32 2.886-.265 7.722-.418 10.101-3.441-.398-.875-.394-1.426.555-2.328 3.555-.528 6.551-2.879 9.988-1.551.891.887 1.774 1.773 2.66 2.66-.121 2.801-.793 5.629-1.218 8.77-.93 6.871-.704 13.816-4.438 20.867-1.242 2.34-3.269 3.32-4.883 4.879-2.707-1.035-4.418-1.274-7.547-4.438.075-2 .149-3.996.219-5.992-.258-.183-.515-.371-.773-.555-.922-.14-.918 1.829-2.11 2.332-2.757 1.157-6.277 2.512-8.656-.886-.34-.489-1.375-1.004-1.332-1.778-.539-2.957 6.746-16.968.113-17.421-.074-.079-.152-.153-.222-.227-1.559 2.996-7.403 10.699-6.774 13.43.098 1.839 3.18 3.129 3.996 5.55 1.852 5.481 9.418 13.516 15.094 17.977 1.945 1.527 1.484 3.273 3.442 3.883 1.652-1.582 3.199-.586 4.882-1.332 2.176-.957 7.243-8.707 8.879-11.317l-.441-.445c-.781.18-1.305-.402-1.778-.664a6.524 6.524 0 0 1-.109-.336c2.063-1.894 5.469-.777 6.766-3.883.664-1.59-.367-3.078.332-4.773 2.73-1.102 7.574-.906 9.328-4.66 3.894-8.352-11.621-25.539-20.867-31.52-1.414-.914-4.383-4.621-6.438-5.551l-3.773-3.547c-4.66-2.839-8.981-7.066-13.653-8.328-1.476 1.043-3.39 2.493-5.214 4.328Zm-5.997-.218c4.118-4.203 8.282-8.25 12.434-8.883 9.879-1.5 19.793 9.586 29.078 18.867a20968.7 20968.7 0 0 1 9.43 9.438c5.152 6.609 15.305 11.582 17.094 19.086.742 3.121-1.918 17.644-7.879 18.98-2.864.637-9.684-1.199-12.098 2.992-.691 1.199-.918 2.801-1.332 4.219-.285.973-7.316 10.465-9.102 11.324-2.16 1.035-3.929.402-5.992.664-.758 2.094.481 3.668-1.554 5.774-.036.031-.071.07-.11.109-2.027-.473-4.504-.926-6.769-1.668-.684-.219-5.098-4.496-5.442-5.437-1.457-4.059-4.855-8.575-7.547-12.653-2.304-3.488-5.855-5.472-7.765-6.66-1.922-1.551-3.848-3.102-5.774-4.66-1.386-.918-4.398-2.574-5.66-4.77-6.105-10.632-3.754-15.254-2.219-25.746.493-3.375 2.934-6.73 3.774-9.988.367-.371.738-.746 1.113-1.113.957-1.723 2.5-4.52 3.324-6.438a766.07 766.07 0 0 0 2.996-3.437" style="fill:#ffffff;fill-rule:nonzero" transform="matrix(.74064 0 0 .85464 -209.94 -558.349)"/><path d="M501.844 926.441c.062 2.531-1.11 9.418-.067 11.316.09-.054.176-.113.266-.168.348-.234.695-.461 1.047-.695.101-3.48 4.547-6.938.492-10.66-.359-.074-.723-.153-1.082-.223-.219.145-.437.289-.656.43Zm25.152-21.449c-.445 2.605-2.176 4.918-2.351 7.562.175.262.347.527.523.789h.562c2.18-1.496 5.926-6.836 3.051-8.207-.879-.422-.683-.699-1.785-.144Zm-28.707 11.203c-.512.457-1.023.918-1.535 1.383.16.332.316.668.476 1 1.063-.118 1.918.011 2.879-.762.086-.438.176-.875.266-1.309-.359-.261-.719-.527-1.082-.789-.332.156-.672.317-1.004.477Zm39.895-26.461c-.11.722-.098 1.242.25 2.09.101.062.203.121.304.179.364-.496.731-.98 1.098-1.476a57.171 57.171 0 0 1-.301-.738 32.178 32.178 0 0 0-.695-.481c-.219.141-.438.285-.656.426Zm-32.364 19.058c-1.711 2.899-3.336 8.696 1.414 11.286.145-.164.293-.321.438-.481 1.18-3.027 2.609-9.402 1.203-12.445-.891.289-1.973.902-3.055 1.64Zm14.414-16.632c-.226.617-.41.816-.312 1.519.09.32.172.641.254.957.426.168.84.324 1.262.488.246-.289.496-.578.742-.867-.535-1.156-.301-1.808-1.2-2.398-.25.097-.5.195-.746.301Zm-17.675 8.254c-.625 1.644-1.817 4.546-.036 6.226.336-.16.668-.312 1-.476.852-1.922 1.325-3.297 1.122-5.434-.868-1.051-1.325-.524-2.086-.316Zm6.832-37.571c4.379-2.859 15.062 3.266 18.461 6.637 1.968 1.945.921 4.707 3.187 5.98 2.93 1.641 6.399 1.621 9.34 3.059 1.797.867 3.09 3.039 4.945 3.508 2.563.648 5.676-1.047 8.094.304.855.446 1.195 1.356 1.25 2.188-2.707 4.574-10.746 10.418-10.145 15.703.524 4.586 4.485 7.313 5.805 11.957 1.551 4.059 3.09 8.117 4.633 12.172.23.91.398 3.949 1.242 4.449.242 1.797.16 3.887.313 5.617.156 1.793 2.086 3.782 1.714 4.887l-.171-.265c-4.875-.567-8.985-4.973-12.743-9.649-3.078-3.824-5.16-10.215-8.378-12.148-.118.011-.231.027-.348.039-6.063 4.355-6.985 10.644-15.059 14.234-2.035-2.07-6.996-6.883-6.426-10.047.399-2.207 2.321-4.137 2.344-6.429-.258-.958-.511-1.918-.765-2.879-.094-1.661.468-3.645.64-5.305.153-1.5-2.297-8.856-4.308-8.254-1.754.527-1.7 6.164-1.653 7.477.11 3.316 1.289 6.765 1.422 10.156.262 6.781-3.004 8.222.52 16.191 1.593 3.625 10.84 10.024 10.508 11.688l-.094.996c-1.071.785-1.352 1.023-2.274 1.121-2.097-.828-4.617-1.758-6.55-3.387-1.735-1.472-2.614-3.351-4.461-4.207-.157.043-.321.086-.477.125-3.082 5.75-1.805 12-11.109 16.524-.434-.086-.871-.176-1.305-.266-1.465-2.125-6.059-6.73-5.996-9.395l1.558-6.476c.52-5.371.489-10.711 1.137-15.969-.187-.195-.375-.383-.562-.57-.117.012-.231.023-.348.043-1.801 2.597-6.402 8.902-10.109 9.472-4.969-7.382.183-14.742 1.816-20.929.926-3.504 3.504-16.754 2.856-19.922-.516-2.508-2.262-3.727-2.707-6.109 2.296-2.625 4.996-2.532 7.726-3.391 2.348 4.148.668 7.008.324 11.058-.683 8.172-3.918 16.579-6.058 24.469-.598 2.219-1.735 4.227-1.907 6.52.258.207.52.414.782.617 1.004-.856 12.062-11.645 12.258-12.203 1.777-5.113-6.024-17.418 4.023-19.004 1.641.914 6.359 3.074 8.168 3.269.129-.089.258-.175.394-.261 1.508-5.504-.269-6.125-4.695-9.121.305-2.786.918-4.403 2.781-6.907 2.524 1.524 4.641 2.145 7.219 1.825 2.289-4.743-8.469-13.516-6.812-19.192" style="fill:#ffffff;fill-rule:nonzero" transform="matrix(.74064 0 0 .85464 -209.94 -679.263)"/></g></g></svg>